<svg xmlns="http://www.w3.org/2000/svg" viewBox="0 0 200.57 200.33"><defs><style>.cls-1{fill:#666768;}.cls-2{fill:#72c6d2;}.cls-3{fill:#60bfc6;}.cls-4{fill:#8fd0dc;}.cls-5{fill:#5485b2;}.cls-6{fill:#376473;}.cls-7{fill:#9dd6eb;}.cls-8{fill:#4c839d;}.cls-9{fill:#436c90;}.cls-10{fill:#417188;}.cls-11{fill:#ffffff;}</style></defs><g id="Capa_2" data-name="Capa 2"><g id="Capa_1-2" data-name="Capa 1"><path class="cls-1" d="M.38,100.16A100.13,100.13,0,0,1,100.43,0h.09a100.14,100.14,0,0,1,0,200.27h-.09A100.13,100.13,0,0,1,.38,100.16"/><path class="cls-2" d="M108.86,197.44c.25-.11.48-.22.68-.33a88.31,88.31,0,0,1-9.2-.74,77.47,77.47,0,0,0,8.52,1.07"/><path class="cls-3" d="M108,197.75a7.25,7.25,0,0,0,.83-.3,74.22,74.22,0,0,1-8.48-1.08,62.57,62.57,0,0,0,7.65,1.38"/><path class="cls-4" d="M107,198c.34-.08.66-.16,1-.26a61.87,61.87,0,0,1-7.6-1.39A50,50,0,0,0,107,198"/><path class="cls-5" d="M105.88,198.25c.37-.06.72-.14,1.06-.22a47.58,47.58,0,0,1-6.6-1.66,36.22,36.22,0,0,0,5.54,1.88"/><path class="cls-6" d="M104.68,198.44q.58-.08,1.14-.18a36.75,36.75,0,0,1-5.48-1.89,26.25,26.25,0,0,0,4.34,2.07"/><path class="cls-7" d="M103.4,198.58l1.21-.13a25.34,25.34,0,0,1-4.27-2.08,17.48,17.48,0,0,0,3.06,2.21"/><path class="cls-3" d="M102.07,198.67l1.26-.08a18.13,18.13,0,0,1-3-2.22,13.6,13.6,0,0,0,1.73,2.3"/><path class="cls-8" d="M100.7,198.71c.43,0,.87,0,1.3,0a13.59,13.59,0,0,1-1.66-2.3q.18,1.44.36,2.34"/><path class="cls-5" d="M99.31,198.7c.44,0,.88,0,1.32,0-.1-.6-.19-1.39-.29-2.34a16.22,16.22,0,0,1-1,2.33"/><path class="cls-9" d="M97.92,198.64q.66,0,1.32.06a15.65,15.65,0,0,0,1.1-2.33,15.19,15.19,0,0,1-2.42,2.27"/><path class="cls-10" d="M96.55,198.52c.43,0,.86.08,1.3.11a15.34,15.34,0,0,0,2.49-2.26,21.88,21.88,0,0,1-3.79,2.15"/><path class="cls-8" d="M95.23,198.34l.6.09.65.08a22.3,22.3,0,0,0,3.86-2.14,32.07,32.07,0,0,1-5.11,2"/><path class="cls-8" d="M94,198.12c.35.08.73.15,1.13.21a33,33,0,0,0,5.17-2,44.42,44.42,0,0,1-6.3,1.75"/><path class="cls-2" d="M93,197.86c.31.09.64.17,1,.25a46.48,46.48,0,0,0,6.36-1.74A57,57,0,0,1,93,197.86"/><path class="cls-8" d="M92.09,197.57c.26.1.54.19.85.28a57.67,57.67,0,0,0,7.4-1.48,71.35,71.35,0,0,1-8.25,1.2"/><path class="cls-4" d="M91.35,197.25c.21.1.44.21.7.31a72,72,0,0,0,8.29-1.19,82.33,82.33,0,0,1-9,.88"/><path class="cls-6" d="M90.77,196.91a4,4,0,0,0,.55.32,83,83,0,0,0,9-.86,94.3,94.3,0,0,1-9.57.54"/><path class="cls-11" d="M90.37,196.54a2.19,2.19,0,0,0,.38.35,94.76,94.76,0,0,0,9.59-.52c-3.36.22-6.69.28-10,.17"/><path class="cls-7" d="M90.14,196.17a1,1,0,0,0,.21.35,98.33,98.33,0,0,0,10-.15c-3.44.1-6.85,0-10.2-.2"/><path class="cls-7" d="M90.09,195.78a.92.92,0,0,0,0,.37c3.36.23,6.76.31,10.21.22q-5.19,0-10.25-.59"/><path class="cls-6" d="M90.24,195.4a.92.92,0,0,0-.15.36q5.05.56,10.25.61-5.11-.26-10.1-1"/><path class="cls-7" d="M90.58,195a1.6,1.6,0,0,0-.33.37q5,.74,10.09,1A98.34,98.34,0,0,1,90.58,195"/><path class="cls-2" d="M91.12,194.64a3.13,3.13,0,0,0-.52.35,95.1,95.1,0,0,0,9.74,1.37,89.12,89.12,0,0,1-9.22-1.72"/><path class="cls-7" d="M91.85,194.29a5.07,5.07,0,0,0-.7.33,91.37,91.37,0,0,0,9.19,1.75,80.21,80.21,0,0,1-8.49-2.08"/><path class="cls-2" d="M92.72,194c-.29.09-.57.19-.83.3a82.1,82.1,0,0,0,8.45,2.1,67.88,67.88,0,0,1-7.62-2.4"/><path class="cls-6" d="M93.73,193.7c-.34.08-.66.17-1,.26a68.4,68.4,0,0,0,7.56,2.41,56.4,56.4,0,0,1-6.61-2.67"/><path class="cls-10" d="M94.84,193.47c-.36.07-.72.14-1,.22a55.63,55.63,0,0,0,6.55,2.68,44,44,0,0,1-5.5-2.9"/><path class="cls-6" d="M96.05,193.29l-1.14.17a44,44,0,0,0,5.43,2.91,35.94,35.94,0,0,1-4.29-3.08"/><path class="cls-4" d="M97.33,193.15l-1.21.13a34.36,34.36,0,0,0,4.22,3.09,28.57,28.57,0,0,1-3-3.22"/><path class="cls-5" d="M98.67,193.06l-1.27.08a29.34,29.34,0,0,0,2.94,3.23,31.74,31.74,0,0,1-1.67-3.31"/><path class="cls-2" d="M117.69,197.46a12,12,0,0,0,1.39-.67,78.78,78.78,0,0,1-9,.33,6.06,6.06,0,0,1-.72.35,70.12,70.12,0,0,0,8.33,0"/><path class="cls-6" d="M115.92,198.1c.6-.18,1.16-.39,1.68-.6a69.33,69.33,0,0,1-8.28,0c-.27.1-.56.21-.88.31a55.57,55.57,0,0,0,7.48.3"/><path class="cls-9" d="M113.88,198.66c.68-.16,1.33-.34,1.94-.52a56.56,56.56,0,0,1-7.43-.32l-1,.27a42.73,42.73,0,0,0,6.5.57"/><path class="cls-9" d="M111.62,199.13c.75-.13,1.46-.28,2.15-.44a42.26,42.26,0,0,1-6.45-.59c-.35.09-.73.16-1.12.23a29.7,29.7,0,0,0,5.42.8"/><path class="cls-10" d="M109.17,199.51c.8-.1,1.58-.22,2.33-.36a30,30,0,0,1-5.36-.81l-1.21.19a19.78,19.78,0,0,0,4.24,1"/><path class="cls-8" d="M106.57,199.79c.84-.07,1.66-.16,2.47-.26a19.31,19.31,0,0,1-4.18-1l-1.28.14a11,11,0,0,0,3,1.11"/><path class="cls-2" d="M103.85,200c.87,0,1.73-.1,2.58-.17a10.71,10.71,0,0,1-2.92-1.13l-1.34.1a5.38,5.38,0,0,0,1.68,1.2"/><path class="cls-4" d="M101.06,200.07c.89,0,1.78,0,2.65-.08a5.09,5.09,0,0,1-1.62-1.21l-1.37,0a6.06,6.06,0,0,0,.34,1.25"/><path class="cls-5" d="M98.24,200.05c.89,0,1.79,0,2.68,0a8.16,8.16,0,0,1-.28-1.25H99.25a4.22,4.22,0,0,1-1,1.24"/><path class="cls-5" d="M95.41,199.92c.89.05,1.79.09,2.68.12a4.1,4.1,0,0,0,1.08-1.23l-1.39-.07a7.71,7.71,0,0,1-2.37,1.18"/><path class="cls-5" d="M92.63,199.67q1.31.15,2.64.24a8.18,8.18,0,0,0,2.43-1.17l-1.37-.13a15.22,15.22,0,0,1-3.7,1.06"/><path class="cls-5" d="M89.94,199.32l1.21.17,1.34.17a15.86,15.86,0,0,0,3.77-1.06l-.7-.08-.62-.09a26.57,26.57,0,0,1-5,.89"/><path class="cls-7" d="M87.51,198.87c.72.15,1.49.3,2.3.43a27.87,27.87,0,0,0,5-.88c-.42-.07-.82-.14-1.19-.22a40,40,0,0,1-6.16.67"/><path class="cls-3" d="M85.37,198.34c.63.18,1.3.35,2,.5a39.49,39.49,0,0,0,6.22-.66c-.38-.08-.73-.17-1-.26a51.8,51.8,0,0,1-7.19.42"/><path class="cls-10" d="M83.54,197.74c.53.2,1.1.39,1.73.57a53.82,53.82,0,0,0,7.23-.4l-.9-.3a64,64,0,0,1-8.06.13"/><path class="cls-3" d="M82,197.09c.43.21.9.42,1.42.62a64.82,64.82,0,0,0,8.11-.12,7.46,7.46,0,0,1-.74-.32,75.4,75.4,0,0,1-8.79-.18"/><path class="cls-3" d="M80.86,196.39a7.43,7.43,0,0,0,1.1.66,78.34,78.34,0,0,0,8.83.2,6,6,0,0,1-.58-.34,89.83,89.83,0,0,1-9.35-.52"/><path class="cls-8" d="M80,195.65a4.53,4.53,0,0,0,.78.7,90.34,90.34,0,0,0,9.37.54,2.4,2.4,0,0,1-.4-.37,97.55,97.55,0,0,1-9.75-.87"/><path class="cls-9" d="M79.57,194.88a2.41,2.41,0,0,0,.43.73,94.86,94.86,0,0,0,9.76.89,1.44,1.44,0,0,1-.22-.37q-5.07-.39-10-1.25"/><path class="cls-7" d="M79.48,194.1a1.55,1.55,0,0,0,.07.74q4.9.87,10,1.26a.81.81,0,0,1,0-.38q-5.08-.57-10-1.62"/><path class="cls-6" d="M79.77,193.32a1.84,1.84,0,0,0-.29.74q4.92,1,10,1.64a.92.92,0,0,1,.16-.39c-3.35-.51-6.65-1.18-9.88-2"/><path class="cls-6" d="M80.46,192.53a4.11,4.11,0,0,0-.67.75q4.86,1.23,9.87,2a1.76,1.76,0,0,1,.35-.39,95.81,95.81,0,0,1-9.55-2.37"/><path class="cls-8" d="M81.57,191.77a7.48,7.48,0,0,0-1.06.72c3.12.95,6.3,1.75,9.52,2.39a3.74,3.74,0,0,1,.55-.38,90.78,90.78,0,0,1-9-2.73"/><path class="cls-7" d="M83.05,191.05a13.28,13.28,0,0,0-1.41.68,89.53,89.53,0,0,0,9,2.75,6.24,6.24,0,0,1,.73-.35,81.21,81.21,0,0,1-8.3-3.08"/><path class="cls-8" d="M84.83,190.42c-.6.18-1.17.39-1.69.6a82.1,82.1,0,0,0,8.26,3.09c.27-.11.56-.21.88-.31a75.13,75.13,0,0,1-7.45-3.38"/><path class="cls-8" d="M86.88,189.86c-.69.16-1.34.34-1.95.53a74.42,74.42,0,0,0,7.4,3.39l1-.27a64,64,0,0,1-6.46-3.65"/><path class="cls-9" d="M89.15,189.4c-.75.13-1.47.28-2.16.44a63.43,63.43,0,0,0,6.41,3.66c.36-.08.73-.16,1.12-.23a54.06,54.06,0,0,1-5.37-3.87"/><path class="cls-6" d="M91.61,189c-.81.1-1.58.22-2.34.36a55.29,55.29,0,0,0,5.32,3.88c.39-.07.79-.13,1.21-.18A46.71,46.71,0,0,1,91.61,189"/><path class="cls-2" d="M94.21,188.74c-.84.07-1.67.16-2.47.26a46.4,46.4,0,0,0,4.13,4.07c.42-.06.85-.1,1.29-.14a45.7,45.7,0,0,1-3-4.19"/><path class="cls-5" d="M96.93,188.56c-.87,0-1.73.1-2.58.17a45.58,45.58,0,0,0,2.88,4.19l1.34-.09c-.56-1.28-1.1-2.7-1.64-4.27"/><path class="cls-11" d="M126.18,196.39a18.17,18.17,0,0,0,2.07-1,76.93,76.93,0,0,1-8.66,1.35,13.46,13.46,0,0,1-1.42.69,63.76,63.76,0,0,0,8-1"/><path class="cls-7" d="M123.54,197.35c.9-.29,1.74-.59,2.51-.91a63.12,63.12,0,0,1-8,1c-.53.22-1.11.43-1.73.62a51.66,51.66,0,0,0,7.19-.74"/><path class="cls-6" d="M120.51,198.18c1-.25,2-.51,2.88-.79a50.79,50.79,0,0,1-7.14.73c-.63.2-1.29.38-2,.54a40.34,40.34,0,0,0,6.25-.48"/><path class="cls-3" d="M117.14,198.88c1.11-.21,2.18-.42,3.2-.66a39.6,39.6,0,0,1-6.2.47c-.7.16-1.44.32-2.21.46a28.13,28.13,0,0,0,5.21-.27"/><path class="cls-3" d="M113.26,199.47l1.52-.21,2.17-.35a26.63,26.63,0,0,1-5.15.26c-.77.13-1.57.26-2.39.37a17,17,0,0,0,3.85-.07"/><path class="cls-3" d="M109,199.94l.79-.07,3.22-.37a16.18,16.18,0,0,1-3.75.05c-.83.11-1.68.2-2.54.28a8.36,8.36,0,0,0,2.28.11"/><path class="cls-6" d="M105.09,200.21h.19l3.54-.24a8.33,8.33,0,0,1-2.22-.12c-.87.08-1.76.14-2.65.18a2.74,2.74,0,0,0,1.14.19"/><path class="cls-2" d="M101.3,200.33l3.6-.11a2.69,2.69,0,0,1-1.1-.19c-.9,0-1.81.07-2.72.08.08.15.15.22.22.22"/><path class="cls-2" d="M97.51,200.3l3.42,0h.18c-.06,0-.12-.07-.18-.22-.91,0-1.83,0-2.75,0a1.2,1.2,0,0,1-.67.21"/><path class="cls-5" d="M93.56,200.12l3,.15.74,0a1.25,1.25,0,0,0,.72-.21c-.92,0-1.84-.07-2.75-.13a5.62,5.62,0,0,1-1.72.17"/><path class="cls-2" d="M89.28,199.74,92,200l1.4.1a5.71,5.71,0,0,0,1.78-.16c-.92-.06-1.82-.14-2.72-.24a12.63,12.63,0,0,1-3.13,0"/><path class="cls-10" d="M84.84,199.15l1.46.22.5.07,2.25.27a13.35,13.35,0,0,0,3.22,0l-1.38-.17-1.24-.18a23.32,23.32,0,0,1-4.81-.19"/><path class="cls-2" d="M81.22,198.48c1.08.23,2.22.45,3.43.64a23.87,23.87,0,0,0,4.87.2c-.84-.14-1.63-.28-2.37-.44a35.25,35.25,0,0,1-5.93-.4"/><path class="cls-6" d="M78,197.7c.94.26,1.94.51,3,.75a37.14,37.14,0,0,0,6,.4c-.74-.16-1.43-.33-2.07-.52A49.44,49.44,0,0,1,78,197.7"/><path class="cls-4" d="M75.31,196.81c.79.29,1.64.58,2.57.84a48.54,48.54,0,0,0,7,.65c-.64-.18-1.23-.38-1.78-.58a61.82,61.82,0,0,1-7.76-.91"/><path class="cls-7" d="M73.06,195.83c.64.32,1.34.63,2.12.93a62.47,62.47,0,0,0,7.8.93c-.53-.21-1-.42-1.46-.64a73.64,73.64,0,0,1-8.46-1.22"/><path class="cls-6" d="M71.32,194.79a12.92,12.92,0,0,0,1.64,1A74.17,74.17,0,0,0,81.45,197a8.87,8.87,0,0,1-1.13-.68,85.36,85.36,0,0,1-9-1.54"/><path class="cls-5" d="M70.08,193.69a7.52,7.52,0,0,0,1.16,1,83.67,83.67,0,0,0,9,1.56,5.65,5.65,0,0,1-.79-.72,93.39,93.39,0,0,1-9.39-1.88"/><path class="cls-7" d="M69.39,192.55a3.65,3.65,0,0,0,.65,1.08c3.07.78,6.2,1.42,9.4,1.9a2.49,2.49,0,0,1-.45-.75c-3.26-.59-6.46-1.34-9.6-2.23"/><path class="cls-8" d="M69.25,191.38a2.64,2.64,0,0,0,.12,1.11q4.71,1.35,9.61,2.25a1.53,1.53,0,0,1-.08-.76q-4.92-1.08-9.65-2.6"/><path class="cls-9" d="M69.69,190.21a3,3,0,0,0-.43,1.11q4.72,1.53,9.64,2.62a2.05,2.05,0,0,1,.3-.77q-4.85-1.26-9.51-3"/><path class="cls-10" d="M70.72,189.05a5.21,5.21,0,0,0-1,1.1q4.65,1.71,9.5,3a3.36,3.36,0,0,1,.68-.76q-4.68-1.44-9.19-3.32"/><path class="cls-11" d="M72.37,187.91A10.43,10.43,0,0,0,70.8,189q4.49,1.89,9.16,3.34a6.47,6.47,0,0,1,1.09-.75q-4.42-1.62-8.68-3.67"/><path class="cls-9" d="M74.58,186.84a19.65,19.65,0,0,0-2.1,1q4.23,2.06,8.64,3.69a12.27,12.27,0,0,1,1.45-.69c-2.71-1.2-5.38-2.54-8-4"/><path class="cls-8" d="M77.24,185.89c-.91.29-1.75.58-2.53.9a88.38,88.38,0,0,0,8,4c.53-.22,1.12-.43,1.74-.62a81.24,81.24,0,0,1-7.16-4.3"/><path class="cls-9" d="M80.28,185.07c-1,.24-2,.5-2.9.78q3.5,2.35,7.12,4.31c.63-.19,1.3-.37,2-.54a76.4,76.4,0,0,1-6.22-4.55"/><path class="cls-4" d="M83.67,184.38c-1.12.19-2.19.41-3.22.65a70.46,70.46,0,0,0,6.17,4.56q1.06-.24,2.22-.45a66.94,66.94,0,0,1-5.17-4.76"/><path class="cls-3" d="M87.33,183.82c-1.2.15-2.36.33-3.48.52A66.75,66.75,0,0,0,89,189.12c.77-.13,1.57-.26,2.4-.36a62.47,62.47,0,0,1-4-4.94"/><path class="cls-2" d="M91.21,183.4c-1.25.11-2.49.24-3.69.39,1.3,1.78,2.63,3.44,4,5q1.25-.17,2.55-.27c-1-1.56-1.91-3.25-2.84-5.07"/><path class="cls-6" d="M95.26,183.13c-1.3.06-2.58.14-3.84.25.9,1.82,1.83,3.52,2.77,5.08.86-.08,1.75-.14,2.65-.18q-.81-2.37-1.58-5.15"/><path class="cls-8" d="M134.28,194.27A25.63,25.63,0,0,0,137,193a75.8,75.8,0,0,1-8.26,2.32,18.7,18.7,0,0,1-2.1,1,62.62,62.62,0,0,0,7.64-2"/><path class="cls-7" d="M130.33,195.68l.91-.29q1.53-.49,2.88-1a64,64,0,0,1-7.61,2c-.79.32-1.64.63-2.56.91a48.76,48.76,0,0,0,6.38-1.59"/><path class="cls-11" d="M123.54,197.57c1.19-.31,2.79-.71,4-1l2.41-.72a49.72,49.72,0,0,1-6.12,1.51c-.92.29-1.9.55-2.93.8.9-.16,1.79-.34,2.67-.55"/><path class="cls-10" d="M118,198.73l2.5-.48,2.73-.61c-.84.2-1.68.37-2.53.52-1,.24-2.13.46-3.26.67l.56-.1"/><path class="cls-7" d="M117.74,198.78l-.49.08-1.37.23Z"/><path class="cls-7" d="M84.06,199l1.46.22-1-.14-.51-.08"/><path class="cls-11" d="M77.71,197.77c1.81.38,4.22.87,6,1.2l.62.11c-1.23-.2-2.4-.42-3.49-.65s-2.13-.4-3.17-.66"/><path class="cls-5" d="M71,196c1.89.53,4.42,1.22,6.33,1.7,1.1.28,2.21.52,3.33.7-1.09-.23-2.11-.49-3.06-.76A47.15,47.15,0,0,1,71,196"/><path class="cls-9" d="M67.45,194.82c1,.39,2.16.76,3.38,1.11a48.22,48.22,0,0,0,6.65,1.65c-.94-.27-1.81-.55-2.62-.85a59.63,59.63,0,0,1-7.41-1.91"/><path class="cls-2" d="M64.5,193.54a29.62,29.62,0,0,0,2.78,1.21,60.31,60.31,0,0,0,7.45,1.93,20.9,20.9,0,0,1-2.15-1,72.26,72.26,0,0,1-8.08-2.19"/><path class="cls-4" d="M62.2,192.16a16.43,16.43,0,0,0,2.16,1.31,73.43,73.43,0,0,0,8.11,2.21,13.39,13.39,0,0,1-1.67-1,82.53,82.53,0,0,1-8.6-2.51"/><path class="cls-9" d="M60.59,190.72a9.33,9.33,0,0,0,1.51,1.37,82.93,82.93,0,0,0,8.62,2.52,7.24,7.24,0,0,1-1.17-1.06,91.54,91.54,0,0,1-9-2.83"/><path class="cls-2" d="M59.68,189.22a4.69,4.69,0,0,0,.84,1.42,92.88,92.88,0,0,0,9,2.85,3.46,3.46,0,0,1-.66-1.1q-4.7-1.37-9.16-3.17"/><path class="cls-8" d="M59.5,187.69a3.13,3.13,0,0,0,.15,1.45q4.47,1.81,9.17,3.19a2.4,2.4,0,0,1-.12-1.12q-4.71-1.54-9.2-3.52"/><path class="cls-8" d="M60.07,186.15a3.89,3.89,0,0,0-.56,1.46q4.49,2,9.2,3.53a3,3,0,0,1,.44-1.13q-4.65-1.71-9.08-3.86"/><path class="cls-2" d="M61.43,184.62a7.15,7.15,0,0,0-1.31,1.45q4.43,2.15,9.06,3.88a5.48,5.48,0,0,1,1-1.12q-4.49-1.91-8.77-4.21"/><path class="cls-6" d="M63.59,183.13a13.78,13.78,0,0,0-2.07,1.42q4.27,2.31,8.75,4.22a10.83,10.83,0,0,1,1.6-1.1q-4.23-2.07-8.28-4.54"/><path class="cls-10" d="M66.49,181.72a24.53,24.53,0,0,0-2.76,1.33q4,2.47,8.25,4.56a19.43,19.43,0,0,1,2.14-1q-3.9-2.24-7.63-4.86"/><path class="cls-9" d="M70,180.48c-1.19.37-2.3.76-3.32,1.18q3.7,2.63,7.59,4.87c.79-.32,1.65-.63,2.57-.91q-3.5-2.38-6.84-5.14"/><path class="cls-11" d="M74,179.39c-1.34.32-2.62.66-3.81,1q3.31,2.76,6.79,5.15c.93-.28,1.92-.55,3-.79q-3-2.5-5.94-5.39"/><path class="cls-9" d="M78.43,178.48c-1.47.26-2.88.55-4.22.86,1.91,1.93,3.88,3.73,5.89,5.4,1-.25,2.13-.47,3.27-.67-1.69-1.74-3.33-3.6-4.94-5.59"/><path class="cls-9" d="M83.24,177.75c-1.57.2-3.1.43-4.57.69q2.39,3,4.88,5.6c1.15-.2,2.33-.38,3.55-.54q-2-2.69-3.86-5.75"/><path class="cls-4" d="M88.34,177.2c-1.65.14-3.27.32-4.84.52q1.84,3.06,3.8,5.76c1.22-.16,2.47-.29,3.75-.4-.92-1.84-1.83-3.8-2.71-5.88"/><path class="cls-3" d="M93.66,176.84c-1.71.08-3.39.2-5,.34.86,2.08,1.75,4,2.65,5.88,1.28-.11,2.59-.2,3.91-.26-.51-1.86-1-3.85-1.51-6"/><path class="cls-9" d="M139,192.47l4.38-2q1-.47,1.86-1a74.6,74.6,0,0,1-7.81,3.25,24.34,24.34,0,0,1-2.75,1.33c1.47-.49,2.91-1.05,4.32-1.65"/><path class="cls-10" d="M136.7,193.43l1.77-.72c-1.29.54-2.59,1-3.91,1.48-.81.33-1.67.65-2.58.95,1.42-.51,3.32-1.16,4.72-1.71"/><path class="cls-5" d="M64.27,193.68c1.75.63,4.09,1.45,5.86,2-1.11-.33-2.15-.67-3.1-1s-1.85-.65-2.76-1"/><path class="cls-5" d="M56.39,190.25l.9.43,4.87,2.16,1.76.7c1,.38,2,.74,2.93,1.07A30.22,30.22,0,0,1,64,193.38a73,73,0,0,1-7.65-3.13"/><path class="cls-7" d="M53.57,188.56a20.32,20.32,0,0,0,2.66,1.6,70.52,70.52,0,0,0,7.67,3.15A18.09,18.09,0,0,1,61.71,192a80,80,0,0,1-8.14-3.43"/><path class="cls-6" d="M51.59,186.79a11.48,11.48,0,0,0,1.86,1.68,81.77,81.77,0,0,0,8.16,3.45,9.26,9.26,0,0,1-1.54-1.4,90.39,90.39,0,0,1-8.48-3.73"/><path class="cls-10" d="M50.48,185a6,6,0,0,0,1,1.75,92.39,92.39,0,0,0,8.5,3.75,4.77,4.77,0,0,1-.86-1.44c-3-1.22-5.87-2.57-8.67-4.06"/><path class="cls-6" d="M50.26,183.08a3.87,3.87,0,0,0,.18,1.78q4.22,2.23,8.68,4.07a3.22,3.22,0,0,1-.15-1.47q-4.48-2-8.71-4.38"/><path class="cls-5" d="M51,181.19a4.8,4.8,0,0,0-.69,1.79q4.23,2.4,8.71,4.4a3.78,3.78,0,0,1,.57-1.48q-4.41-2.16-8.59-4.71"/><path class="cls-4" d="M52.63,179.32A8.67,8.67,0,0,0,51,181.1q4.17,2.55,8.58,4.72a7.29,7.29,0,0,1,1.32-1.47q-4.26-2.32-8.29-5"/><path class="cls-11" d="M55.28,177.48a17,17,0,0,0-2.54,1.74q4,2.72,8.28,5.05a13.89,13.89,0,0,1,2.1-1.44q-4-2.49-7.84-5.35"/><path class="cls-5" d="M58.83,175.76a32.37,32.37,0,0,0-3.38,1.63c2.52,1.91,5.13,3.7,7.8,5.37a28.19,28.19,0,0,1,2.8-1.35q-3.7-2.64-7.22-5.65"/><path class="cls-10" d="M63.11,174.24c-1.45.45-2.82.93-4.07,1.44,2.32,2,4.72,3.9,7.18,5.66,1-.42,2.17-.82,3.37-1.19-2.22-1.85-4.38-3.83-6.48-5.91"/><path class="cls-6" d="M68,172.91c-1.64.38-3.2.8-4.67,1.25q3.12,3.14,6.44,5.93c1.21-.37,2.5-.72,3.85-1-1.92-1.93-3.8-4-5.62-6.14"/><path class="cls-9" d="M73.47,171.79q-2.7.48-5.18,1.05C70.1,175,72,177.07,73.87,179c1.36-.31,2.79-.61,4.28-.87q-2.4-3-4.68-6.34"/><path class="cls-2" d="M79.37,170.89q-2.9.38-5.6.85c1.49,2.23,3,4.34,4.62,6.35,1.49-.26,3-.5,4.63-.7q-1.87-3.09-3.65-6.5"/><path class="cls-9" d="M85.63,170.22q-3,.25-5.94.63,1.74,3.42,3.59,6.5c1.6-.2,3.23-.37,4.91-.52-.88-2.09-1.74-4.3-2.56-6.61"/><path class="cls-11" d="M92.15,169.78q-3.15.15-6.19.41,1.22,3.47,2.5,6.62c1.68-.14,3.39-.26,5.11-.34-.48-2.12-1-4.35-1.42-6.69"/><path class="cls-8" d="M149.56,187.28c-1.25.72-2.53,1.4-3.83,2q-.79.45-1.68.87c1.66-.87,3.89-2,5.51-2.91"/><path class="cls-5" d="M54.14,189.12l2.54,1.27L56,190l-1.82-.92"/><path class="cls-6" d="M45.49,184c.32.23.66.46,1,.68,2.1,1.25,4.89,2.92,7,4.08.74.4,1.49.78,2.25,1.15a21.08,21.08,0,0,1-2.68-1.61,83.7,83.7,0,0,1-7.62-4.3"/><path class="cls-7" d="M43.17,182a13,13,0,0,0,2.18,2,79.24,79.24,0,0,0,7.64,4.3,11.29,11.29,0,0,1-1.88-1.69A89,89,0,0,1,43.17,182"/><path class="cls-9" d="M41.86,179.81a6.81,6.81,0,0,0,1.21,2,90.89,90.89,0,0,0,8,4.6A6,6,0,0,1,50,184.69q-4.2-2.25-8.12-4.88"/><path class="cls-11" d="M41.6,177.61a4.53,4.53,0,0,0,.22,2.09c2.62,1.75,5.33,3.39,8.13,4.89a3.92,3.92,0,0,1-.19-1.79c-2.81-1.61-5.54-3.34-8.16-5.19"/><path class="cls-4" d="M42.43,175.4a5.56,5.56,0,0,0-.82,2.1q3.95,2.77,8.16,5.2a4.85,4.85,0,0,1,.7-1.81c-2.77-1.71-5.46-3.54-8-5.49"/><path class="cls-9" d="M44.38,173.2a10.1,10.1,0,0,0-1.88,2.08c2.58,2,5.27,3.8,8,5.51A8.42,8.42,0,0,1,52.15,179q-4-2.73-7.77-5.8"/><path class="cls-2" d="M47.49,171.05a20.27,20.27,0,0,0-3,2q3.75,3.07,7.76,5.81a16.72,16.72,0,0,1,2.56-1.75q-3.8-2.88-7.34-6.1"/><path class="cls-8" d="M51.66,169a36.09,36.09,0,0,0-4,1.91q3.54,3.23,7.32,6.11a33.16,33.16,0,0,1,3.42-1.64q-3.49-3-6.76-6.38"/><path class="cls-6" d="M56.68,167.24c-1.71.53-3.31,1.09-4.78,1.69q3.26,3.36,6.73,6.39c1.27-.51,2.64-1,4.12-1.45q-3.14-3.17-6.07-6.63"/><path class="cls-6" d="M62.43,165.68c-1.92.46-3.75.95-5.47,1.47q2.91,3.48,6,6.64,2.22-.67,4.71-1.26-2.72-3.27-5.27-6.85"/><path class="cls-10" d="M68.82,164.37c-2.1.37-4.14.79-6.07,1.24,1.68,2.39,3.43,4.67,5.22,6.85,1.67-.39,3.42-.74,5.23-1.06-1.5-2.24-3-4.59-4.38-7"/><path class="cls-9" d="M75.74,163.31q-3.39.45-6.57,1c1.4,2.44,2.84,4.79,4.34,7,1.82-.31,3.71-.6,5.65-.85-1.18-2.29-2.32-4.69-3.42-7.18"/><path class="cls-4" d="M83.08,162.53q-3.57.3-7,.74,1.64,3.73,3.37,7.18,2.92-.37,6-.64-1.24-3.5-2.4-7.28"/><path class="cls-4" d="M90.73,162c-2.46.12-4.89.28-7.26.48.75,2.53,1.54,5,2.34,7.29q3.07-.25,6.26-.42c-.47-2.35-.91-4.8-1.34-7.35"/><path class="cls-4" d="M41.16,181.08l4.76,3.27c-.3-.19-.59-.39-.86-.58q-2-1.29-3.9-2.69"/><path class="cls-10" d="M35.37,176.29a13.67,13.67,0,0,0,1.89,1.8l3.06,2.37q2.25,1.68,4.6,3.2a12.75,12.75,0,0,1-2.2-2,88.76,88.76,0,0,1-7.35-5.38"/><path class="cls-9" d="M33.88,173.84a7.73,7.73,0,0,0,1.38,2.32,90.86,90.86,0,0,0,7.36,5.4,7.06,7.06,0,0,1-1.22-2.06q-3.91-2.66-7.52-5.66"/><path class="cls-9" d="M33.59,171.35a5.35,5.35,0,0,0,.24,2.37c2.41,2,4.92,3.9,7.53,5.67a4.62,4.62,0,0,1-.22-2.11q-3.93-2.79-7.55-5.93"/><path class="cls-7" d="M34.52,168.83a6.39,6.39,0,0,0-.92,2.39q3.63,3.14,7.55,5.95a5.65,5.65,0,0,1,.82-2.12q-3.87-2.94-7.45-6.22"/><path class="cls-9" d="M36.74,166.33a12,12,0,0,0-2.13,2.37Q38.18,172,42,174.94a9.81,9.81,0,0,1,1.9-2.1c-2.49-2.06-4.9-4.23-7.2-6.51"/><path class="cls-11" d="M40.28,163.89a22.41,22.41,0,0,0-3.39,2.32c2.3,2.27,4.7,4.45,7.18,6.51a20.54,20.54,0,0,1,3-2.05q-3.52-3.24-6.79-6.78"/><path class="cls-2" d="M45,161.59a42.46,42.46,0,0,0-4.52,2.17q3.26,3.56,6.77,6.8a34.9,34.9,0,0,1,4-1.92q-3.26-3.37-6.26-7"/><path class="cls-7" d="M50.72,159.56c-1.94.6-3.76,1.24-5.43,1.92q3,3.68,6.23,7.06c1.48-.61,3.09-1.18,4.81-1.71q-2.91-3.5-5.61-7.27"/><path class="cls-10" d="M57.26,157.79c-2.19.52-4.27,1.07-6.22,1.67q2.67,3.78,5.58,7.28,2.6-.8,5.52-1.48c-1.69-2.39-3.32-4.89-4.88-7.47"/><path class="cls-11" d="M64.52,156.3c-2.39.43-4.7.9-6.9,1.41q2.33,3.87,4.83,7.48c2-.46,4-.87,6.13-1.25q-2.11-3.67-4.06-7.64"/><path class="cls-10" d="M72.38,155.1c-2.56.33-5.06.71-7.46,1.13q1.92,4,4,7.65,3.19-.57,6.62-1c-1.1-2.5-2.16-5.1-3.17-7.78"/><path class="cls-6" d="M80.72,154.2q-4.05.36-7.92.85,1.5,4,3.12,7.78c2.28-.29,4.63-.54,7-.75q-1.16-3.81-2.22-7.88"/><path class="cls-5" d="M89.41,153.62c-2.79.14-5.55.32-8.25.55.7,2.71,1.42,5.34,2.17,7.87q3.6-.3,7.32-.48c-.43-2.56-.85-5.21-1.24-7.94"/><path class="cls-7" d="M28.26,169.83c.2.23.42.47.66.71L32.51,174l4.26,3.68A12.54,12.54,0,0,1,35,176a88.37,88.37,0,0,1-6.7-6.12"/><path class="cls-9" d="M26.6,167.11a8.77,8.77,0,0,0,1.54,2.58q3.2,3.23,6.71,6.14a7.77,7.77,0,0,1-1.39-2.34q-3.6-3-6.86-6.38"/><path class="cls-6" d="M26.28,164.34a5.91,5.91,0,0,0,.27,2.63q3.27,3.36,6.86,6.39a5.26,5.26,0,0,1-.25-2.38q-3.6-3.16-6.88-6.64"/><path class="cls-2" d="M27.32,161.55a6.86,6.86,0,0,0-1,2.65q3.27,3.48,6.88,6.65a6.11,6.11,0,0,1,.93-2.41q-3.55-3.28-6.79-6.89"/><path class="cls-10" d="M29.78,158.78a13.13,13.13,0,0,0-2.37,2.63c2.15,2.4,4.41,4.71,6.78,6.9a11.31,11.31,0,0,1,2.15-2.38q-3.44-3.42-6.56-7.15"/><path class="cls-8" d="M33.7,156.07A25.16,25.16,0,0,0,30,158.64c2.07,2.48,4.26,4.87,6.54,7.16a22.18,22.18,0,0,1,3.41-2.33q-3.26-3.57-6.2-7.4"/><path class="cls-3" d="M39,153.52a46.92,46.92,0,0,0-5,2.41q2.94,3.84,6.17,7.41a43.8,43.8,0,0,1,4.54-2.18q-3-3.67-5.7-7.64"/><path class="cls-2" d="M45.29,151.27c-2.16.66-4.17,1.38-6,2.13q2.7,4,5.68,7.65c1.68-.68,3.51-1.33,5.46-1.94q-2.67-3.8-5.11-7.84"/><path class="cls-3" d="M52.54,149.3c-2.43.58-4.73,1.19-6.9,1.86q2.41,4.05,5.08,7.85,3-.9,6.27-1.68-2.33-3.89-4.45-8"/><path class="cls-9" d="M60.6,147.65c-2.66.47-5.22,1-7.66,1.56q2.1,4.14,4.41,8c2.21-.52,4.53-1,6.94-1.42q-1.94-4-3.69-8.18"/><path class="cls-3" d="M69.32,146.32c-2.85.37-5.62.79-8.28,1.25,1.15,2.81,2.37,5.55,3.65,8.19,2.42-.42,4.93-.8,7.51-1.13-1-2.69-2-5.46-2.88-8.31"/><path class="cls-6" d="M78.56,145.32c-3,.26-5.92.58-8.78.94.91,2.85,1.85,5.62,2.85,8.31,2.59-.33,5.25-.61,8-.85-.71-2.72-1.38-5.52-2-8.4"/><path class="cls-7" d="M88.2,144.68c-3.09.14-6.15.35-9.14.6.62,2.88,1.29,5.68,2,8.41,2.72-.23,5.49-.42,8.3-.55-.4-2.74-.77-5.57-1.14-8.46"/><path class="cls-9" d="M23.92,165.1l4.57,5c-.22-.22-.42-.43-.61-.65-1.36-1.41-2.69-2.86-4-4.35"/><path class="cls-3" d="M20.09,159.67a9.4,9.4,0,0,0,1.48,2.57L23,164q2.28,2.75,4.77,5.31a8.85,8.85,0,0,1-1.55-2.59q-3.24-3.37-6.13-7.05"/><path class="cls-4" d="M19.74,156.66a6.38,6.38,0,0,0,.3,2.86,93.2,93.2,0,0,0,6.13,7,6,6,0,0,1-.28-2.64q-3.26-3.5-6.15-7.27"/><path class="cls-8" d="M20.87,153.62a7.63,7.63,0,0,0-1.11,2.88c1.93,2.52,4,5,6.16,7.29a6.9,6.9,0,0,1,1-2.66q-3.2-3.62-6.07-7.51"/><path class="cls-3" d="M23.55,150.61A14.18,14.18,0,0,0,21,153.46q2.87,3.9,6.07,7.52a12.61,12.61,0,0,1,2.38-2.64q-3.11-3.74-5.87-7.73"/><path class="cls-8" d="M27.82,147.65a27.88,27.88,0,0,0-4.09,2.8q2.76,4,5.85,7.75a25.56,25.56,0,0,1,3.78-2.58q-2.92-3.87-5.54-8"/><path class="cls-10" d="M33.54,144.89a48.86,48.86,0,0,0-5.46,2.61q2.61,4.11,5.52,8a46.51,46.51,0,0,1,5-2.42q-2.7-4-5.1-8.17"/><path class="cls-8" d="M40.42,142.43c-2.34.73-4.53,1.5-6.55,2.32Q36.26,149,39,152.94c1.86-.76,3.89-1.48,6-2.15q-2.41-4.06-4.58-8.36"/><path class="cls-9" d="M48.32,140.29c-2.64.63-5.15,1.3-7.51,2,1.42,2.86,2.94,5.66,4.54,8.37,2.19-.67,4.5-1.29,6.95-1.86q-2.11-4.15-4-8.53"/><path class="cls-2" d="M57.08,138.49c-2.89.52-5.67,1.08-8.33,1.7q1.86,4.38,3.94,8.53,3.69-.85,7.7-1.57c-1.16-2.81-2.27-5.7-3.31-8.66"/><path class="cls-9" d="M66.57,137.05c-3.1.4-6.11.85-9,1.36q1.55,4.44,3.27,8.67,4-.71,8.33-1.26c-.91-2.86-1.78-5.78-2.59-8.77"/><path class="cls-8" d="M76.63,136c-3.25.29-6.44.63-9.55,1q1.2,4.49,2.55,8.78c2.86-.37,5.81-.68,8.82-.94q-1-4.33-1.82-8.86"/><path class="cls-3" d="M87.12,135.26c-3.36.16-6.69.38-10,.66.56,3,1.15,6,1.77,8.85q4.53-.37,9.2-.6-.54-4.36-1-8.91"/><path class="cls-7" d="M14.41,151.58a9.14,9.14,0,0,0,.86,1.75c1.74,2.55,4.05,6,5.92,8.42a8.77,8.77,0,0,1-1.43-2.51,90.44,90.44,0,0,1-5.35-7.66"/><path class="cls-9" d="M14,148.36a6.84,6.84,0,0,0,.32,3.06q2.49,4,5.35,7.66a6.39,6.39,0,0,1-.3-2.87q-2.88-3.79-5.37-7.85"/><path class="cls-4" d="M15.24,145.11a8.13,8.13,0,0,0-1.19,3.08q2.49,4.06,5.37,7.86a7.76,7.76,0,0,1,1.12-2.89q-2.84-3.9-5.3-8"/><path class="cls-9" d="M18.11,141.88a14.74,14.74,0,0,0-2.76,3.06q2.46,4.16,5.29,8.07a14,14,0,0,1,2.59-2.87q-2.75-4-5.12-8.26"/><path class="cls-8" d="M22.68,138.71a30.79,30.79,0,0,0-4.38,3Q20.67,146,23.41,150a27.78,27.78,0,0,1,4.1-2.81c-1.72-2.74-3.33-5.57-4.83-8.46"/><path class="cls-6" d="M28.8,135.75a56,56,0,0,0-5.84,2.8q2.23,4.35,4.82,8.47a51,51,0,0,1,5.48-2.63q-2.38-4.21-4.46-8.64"/><path class="cls-2" d="M36.18,133.12c-2.51.78-4.86,1.61-7,2.49q2.06,4.42,4.43,8.65c2-.83,4.23-1.61,6.58-2.34q-2.14-4.29-4-8.8"/><path class="cls-5" d="M44.63,130.84c-2.83.66-5.52,1.38-8,2.15,1.22,3,2.55,5.95,4,8.82,2.36-.73,4.89-1.4,7.54-2q-1.86-4.38-3.47-8.94"/><path class="cls-6" d="M54,128.91q-4.65.83-8.93,1.82,1.6,4.56,3.44,9c2.67-.62,5.47-1.19,8.37-1.71q-1.55-4.44-2.88-9.06"/><path class="cls-8" d="M64.17,127.36c-3.31.43-6.54.92-9.65,1.46.89,3.08,1.84,6.11,2.86,9.07,2.91-.51,5.94-1,9.05-1.37q-1.22-4.5-2.26-9.16"/><path class="cls-5" d="M75,126.2c-3.49.3-6.91.67-10.23,1.09.69,3.11,1.43,6.17,2.22,9.16q4.68-.58,9.59-1-.84-4.53-1.58-9.23"/><path class="cls-2" d="M86.18,125.44c-3.61.18-7.17.41-10.66.71q.72,4.69,1.55,9.24c3.28-.28,6.62-.5,10-.67-.32-3-.61-6.13-.89-9.28"/><path class="cls-7" d="M9.61,142.9a7.86,7.86,0,0,0,.36.86l2.3,4.46L15,152.81a8.59,8.59,0,0,1-.83-1.7,89.43,89.43,0,0,1-4.51-8.21"/><path class="cls-5" d="M9.21,139.49a7.18,7.18,0,0,0,.34,3.24A90.94,90.94,0,0,0,14.06,151a6.87,6.87,0,0,1-.32-3.07,94.06,94.06,0,0,1-4.53-8.39"/><path class="cls-7" d="M10.49,136.06a8.64,8.64,0,0,0-1.26,3.26q2.05,4.31,4.53,8.39A8.07,8.07,0,0,1,15,144.62q-2.43-4.17-4.46-8.56"/><path class="cls-4" d="M13.52,132.66a15.32,15.32,0,0,0-2.92,3.23q2,4.38,4.46,8.56a15.13,15.13,0,0,1,2.77-3.07q-2.35-4.26-4.31-8.72"/><path class="cls-8" d="M18.34,129.31a32.45,32.45,0,0,0-4.62,3.17Q15.67,137,18,141.21a29.82,29.82,0,0,1,4.39-3q-2.22-4.35-4.08-8.89"/><path class="cls-4" d="M24.81,126.19a57.42,57.42,0,0,0-6.17,2.95q1.84,4.55,4.06,8.9a55.38,55.38,0,0,1,5.86-2.81c-1.36-2.95-2.62-6-3.75-9"/><path class="cls-8" d="M32.59,123.41c-2.65.82-5.13,1.7-7.41,2.63q1.7,4.61,3.74,9,3.25-1.34,7-2.5c-1.23-3-2.35-6.07-3.37-9.18"/><path class="cls-11" d="M41.51,121c-3,.7-5.82,1.46-8.49,2.28,1,3.11,2.13,6.18,3.35,9.18q3.81-1.16,8.07-2.16-1.59-4.58-2.93-9.3"/><path class="cls-10" d="M51.42,119c-3.27.59-6.41,1.22-9.42,1.92q1.32,4.73,2.9,9.31,4.29-1,9-1.83c-.89-3.08-1.7-6.22-2.44-9.4"/><path class="cls-9" d="M62.15,117.33Q56.89,118,52,118.87c.73,3.18,1.53,6.32,2.41,9.4q4.68-.81,9.68-1.46c-.69-3.12-1.33-6.28-1.9-9.48"/><path class="cls-3" d="M73.52,116.1c-3.68.32-7.29.71-10.8,1.15.57,3.21,1.19,6.37,1.88,9.49,3.33-.43,6.76-.79,10.26-1.1-.48-3.13-.93-6.32-1.34-9.54"/><path class="cls-10" d="M85.38,115.31c-3.81.18-7.57.43-11.25.74.39,3.22.83,6.41,1.31,9.54,3.5-.29,7.07-.53,10.69-.7-.27-3.15-.52-6.35-.75-9.58"/><path class="cls-5" d="M6,134.25c1.1,2.7,2.52,6.32,3.75,9-.13-.27-.24-.54-.34-.81q-1.89-4-3.41-8.15"/><path class="cls-6" d="M5.34,130.13a7.61,7.61,0,0,0,.35,3.37,91.57,91.57,0,0,0,3.62,8.73A7.19,7.19,0,0,1,9,139a92.47,92.47,0,0,1-3.63-8.86"/><path class="cls-11" d="M6.67,126.55A9,9,0,0,0,5.36,130,95.13,95.13,0,0,0,9,138.81a8.41,8.41,0,0,1,1.26-3.26q-2-4.4-3.58-9"/><path class="cls-2" d="M9.83,123a16.2,16.2,0,0,0-3,3.37,96.77,96.77,0,0,0,3.57,9,15.6,15.6,0,0,1,2.92-3.24q-1.93-4.47-3.46-9.13"/><path class="cls-11" d="M14.86,119.52a33.41,33.41,0,0,0-4.81,3.3q1.52,4.65,3.44,9.13a31.37,31.37,0,0,1,4.64-3.17q-1.83-4.55-3.27-9.26"/><path class="cls-2" d="M21.6,116.26a60.42,60.42,0,0,0-6.43,3.08c1,3.14,2,6.24,3.26,9.27a54.9,54.9,0,0,1,6.18-3q-1.68-4.62-3-9.39"/><path class="cls-9" d="M29.71,113.37c-2.76.85-5.35,1.77-7.72,2.73q1.31,4.77,3,9.39,3.43-1.39,7.43-2.63-1.51-4.68-2.7-9.49"/><path class="cls-7" d="M39,110.85c-3.11.74-6.07,1.53-8.85,2.38q1.18,4.81,2.68,9.5c2.68-.82,5.53-1.58,8.52-2.29Q40,115.72,39,110.85"/><path class="cls-2" d="M49.34,108.73c-3.41.61-6.69,1.28-9.82,2q1,4.86,2.33,9.6,4.51-1,9.44-1.93c-.73-3.18-1.38-6.41-1.95-9.67"/><path class="cls-6" d="M60.52,107c-3.65.47-7.2,1-10.62,1.6q.85,4.89,1.93,9.68c3.29-.58,6.71-1.09,10.22-1.55-.57-3.21-1.08-6.46-1.53-9.73"/><path class="cls-3" d="M72.37,105.75c-3.83.33-7.59.73-11.25,1.2q.66,4.92,1.5,9.74c3.52-.45,7.14-.84,10.83-1.16-.4-3.22-.76-6.49-1.08-9.78"/><path class="cls-2" d="M84.73,104.92c-4,.19-7.88.45-11.73.78q.47,4.93,1.06,9.78c3.69-.31,7.46-.56,11.28-.75-.23-3.23-.43-6.51-.61-9.81"/><path class="cls-3" d="M2.48,120.33A7.73,7.73,0,0,0,2.63,123c.76,2.74,1.71,6.41,2.6,9.11.09.28.18.55.28.82a7.47,7.47,0,0,1-.36-3.37q-1.56-4.55-2.67-9.27"/><path class="cls-5" d="M3.86,116.65a9.18,9.18,0,0,0-1.35,3.49,91.11,91.11,0,0,0,2.67,9.27A9,9,0,0,1,6.49,126c-1-3.07-1.91-6.2-2.63-9.37"/><path class="cls-8" d="M7.11,113A17,17,0,0,0,4,116.46c.72,3.17,1.61,6.3,2.63,9.37a16.3,16.3,0,0,1,3-3.37Q8.16,117.79,7.11,113"/><path class="cls-4" d="M12.29,109.4a34.38,34.38,0,0,0-5,3.4q1,4.82,2.54,9.47a32.76,32.76,0,0,1,4.82-3.3c-.94-3.14-1.74-6.34-2.4-9.57"/><path class="cls-10" d="M19.23,106.05a61.15,61.15,0,0,0-6.62,3.17c.66,3.23,1.46,6.43,2.4,9.57a60.4,60.4,0,0,1,6.43-3.09c-.86-3.17-1.6-6.4-2.21-9.65"/><path class="cls-10" d="M27.58,103.07c-2.84.88-5.5,1.82-7.95,2.81.6,3.26,1.34,6.48,2.2,9.66q3.59-1.46,7.74-2.74c-.78-3.21-1.44-6.46-2-9.73"/><path class="cls-2" d="M37.16,100.48c-3.2.75-6.25,1.57-9.11,2.44q.81,4.92,2,9.74,4.19-1.27,8.87-2.38-1-4.86-1.73-9.8"/><path class="cls-9" d="M47.8,98.29c-3.51.63-6.89,1.31-10.11,2.06q.7,5,1.71,9.81c3.14-.73,6.43-1.39,9.84-2-.56-3.26-1-6.56-1.44-9.87"/><path class="cls-2" d="M59.31,96.54c-3.75.48-7.41,1-10.93,1.65.39,3.31.87,6.61,1.42,9.87q5.14-.9,10.64-1.61c-.44-3.28-.82-6.59-1.13-9.91"/><path class="cls-3" d="M71.52,95.22q-5.92.51-11.59,1.24c.31,3.32.68,6.63,1.11,9.91,3.67-.46,7.44-.87,11.28-1.2q-.46-4.94-.8-10"/><path class="cls-7" d="M84.25,94.37c-4.08.19-8.12.46-12.08.8q.33,5,.78,10c3.85-.33,7.78-.59,11.75-.78-.17-3.3-.32-6.63-.45-10"/><path class="cls-6" d="M.7,110.15A7.8,7.8,0,0,0,.7,112l.75,5.2,1,5.22a7.76,7.76,0,0,1-.14-2.67A95.14,95.14,0,0,1,.7,110.15"/><path class="cls-3" d="M2.11,106.4A9.33,9.33,0,0,0,.73,110a95.62,95.62,0,0,0,1.65,9.62,9.21,9.21,0,0,1,1.36-3.49,95.09,95.09,0,0,1-1.63-9.69"/><path class="cls-6" d="M5.41,102.67a17.21,17.21,0,0,0-3.18,3.53,94.16,94.16,0,0,0,1.63,9.69A17,17,0,0,1,7,112.42q-1-4.82-1.58-9.75"/><path class="cls-7" d="M10.69,99a34.52,34.52,0,0,0-5,3.46c.36,3.29.89,6.54,1.57,9.75a34.38,34.38,0,0,1,5-3.4c-.64-3.23-1.14-6.51-1.48-9.81"/><path class="cls-5" d="M17.75,95.61A62.26,62.26,0,0,0,11,98.84c.34,3.3.84,6.57,1.48,9.81a64,64,0,0,1,6.62-3.18q-.89-4.89-1.37-9.86"/><path class="cls-8" d="M26.26,92.57c-2.9.9-5.61,1.86-8.1,2.87.32,3.32.78,6.61,1.36,9.87q3.69-1.5,8-2.82c-.53-3.28-.95-6.59-1.23-9.92"/><path class="cls-7" d="M36,89.93c-3.26.77-6.37,1.6-9.28,2.5.29,3.32.69,6.63,1.22,9.91,2.87-.88,5.92-1.69,9.13-2.45q-.69-5-1.07-10"/><path class="cls-2" d="M46.84,87.71c-3.58.64-7,1.34-10.29,2.1.24,3.34.6,6.66,1.06,10,3.22-.75,6.61-1.44,10.12-2.06q-.57-5-.89-10"/><path class="cls-6" d="M58.56,85.92q-5.75.75-11.14,1.69c.21,3.34.51,6.68.89,10C51.84,97,55.5,96.43,59.26,96c-.3-3.33-.54-6.67-.7-10"/><path class="cls-3" d="M71,84.58c-4,.35-8,.78-11.8,1.26q.24,5,.69,10c3.77-.48,7.65-.89,11.6-1.24-.21-3.34-.38-6.69-.49-10"/><path class="cls-6" d="M84,83.71c-4.16.2-8.27.48-12.3.82.11,3.35.27,6.71.48,10q6-.5,12.1-.8c-.12-3.34-.22-6.7-.28-10.06"/><path class="cls-11" d="M.06,99.64a8.55,8.55,0,0,0-.06,1c.15,3.22.31,7.53.63,10.74a7.39,7.39,0,0,1,0-1.82,92.9,92.9,0,0,1-.58-9.93"/><path class="cls-4" d="M1.47,95.87A9.47,9.47,0,0,0,.09,99.45a93.21,93.21,0,0,0,.58,9.93A9.2,9.2,0,0,1,2,105.82a96.47,96.47,0,0,1-.57-9.95"/><path class="cls-6" d="M4.8,92.12a17.42,17.42,0,0,0-3.2,3.55,96.5,96.5,0,0,0,.57,10,17,17,0,0,1,3.18-3.54,99.76,99.76,0,0,1-.55-10"/><path class="cls-8" d="M10.11,88.45A34.16,34.16,0,0,0,5,91.93a97,97,0,0,0,.55,10,33.75,33.75,0,0,1,5.05-3.46c-.33-3.3-.51-6.64-.52-10"/><path class="cls-6" d="M17.22,85a62.29,62.29,0,0,0-6.78,3.25c0,3.36.19,6.69.52,10A62.44,62.44,0,0,1,17.7,95q-.46-5-.48-10"/><path class="cls-10" d="M25.77,82c-2.91.9-5.63,1.86-8.14,2.88q0,5,.48,10c2.49-1,5.2-2,8.09-2.88-.27-3.32-.41-6.67-.43-10"/><path class="cls-5" d="M35.59,79.3c-3.28.78-6.41,1.61-9.34,2.51,0,3.35.16,6.7.43,10q4.38-1.34,9.29-2.49-.36-5-.38-10"/><path class="cls-3" d="M46.48,77.07c-3.59.64-7,1.34-10.35,2.11,0,3.35.14,6.7.37,10,3.28-.76,6.73-1.46,10.3-2.1-.2-3.34-.3-6.7-.32-10.05"/><path class="cls-8" d="M58.28,75.27c-3.85.5-7.6,1.06-11.2,1.69q0,5,.31,10.06,5.38-.94,11.14-1.69c-.16-3.35-.24-6.71-.25-10.06"/><path class="cls-11" d="M70.78,73.92c-4,.35-8,.78-11.87,1.27,0,3.35.09,6.71.25,10.06Q64.92,84.52,71,84c-.11-3.35-.18-6.72-.19-10.07"/><path class="cls-3" d="M83.83,73q-6.28.31-12.38.82,0,5,.18,10.08,6-.52,12.31-.82-.1-5-.11-10.08"/><path class="cls-8" d="M.6,89.13c0,.05,0,.09,0,.13C.37,92.49.05,96.78,0,100a7.73,7.73,0,0,1,.06-1A95.59,95.59,0,0,1,.6,89.13"/><path class="cls-6" d="M2,85.38A9.43,9.43,0,0,0,.63,88.94a92.9,92.9,0,0,0-.54,9.92,9.47,9.47,0,0,1,1.38-3.58A97.9,97.9,0,0,1,2,85.38"/><path class="cls-2" d="M5.31,81.66a17.21,17.21,0,0,0-3.18,3.53,92.07,92.07,0,0,0-.53,9.89,17.42,17.42,0,0,1,3.2-3.55,97,97,0,0,1,.51-9.87"/><path class="cls-9" d="M10.59,78a34.52,34.52,0,0,0-5,3.46A94.56,94.56,0,0,0,5,91.34a34.16,34.16,0,0,1,5.08-3.48q0-5,.48-9.86"/><path class="cls-8" d="M17.66,74.58a62.44,62.44,0,0,0-6.74,3.24q-.48,4.83-.48,9.85a62.29,62.29,0,0,1,6.78-3.25q0-5,.44-9.84"/><path class="cls-9" d="M26.17,71.55c-2.9.89-5.61,1.85-8.1,2.87q-.43,4.8-.44,9.83c2.5-1,5.23-2,8.14-2.88,0-3.35.14-6.63.4-9.82"/><path class="cls-7" d="M35.93,68.91Q31,70.07,26.64,71.4q-.39,4.8-.39,9.82c2.93-.9,6.06-1.73,9.34-2.51q0-5,.34-9.8"/><path class="cls-7" d="M46.76,66.69q-5.35.94-10.3,2.09-.33,4.78-.33,9.81c3.3-.77,6.76-1.47,10.35-2.11,0-3.35.1-6.62.28-9.79"/><path class="cls-9" d="M58.49,64.89q-5.75.75-11.14,1.69c-.18,3.18-.28,6.44-.28,9.79q5.41-.95,11.21-1.69c0-3.35.07-6.62.21-9.79"/><path class="cls-10" d="M70.93,63.55c-4,.36-8,.77-11.81,1.26-.14,3.17-.21,6.44-.21,9.79,3.86-.49,7.83-.92,11.87-1.27q0-5,.15-9.78"/><path class="cls-9" d="M83.9,62.68q-6.25.3-12.31.82c-.1,3.16-.14,6.42-.14,9.77,4-.34,8.19-.61,12.38-.82q0-5,.07-9.77"/><path class="cls-9" d="M.78,87.6l-.13,1a.22.22,0,0,0,0-.08l.12-1"/><path class="cls-3" d="M3.66,75.27a9.4,9.4,0,0,0-1.25,3l-1.29,6.9C1,86.21.82,87.28.69,88.36a9.35,9.35,0,0,1,1.38-3.55,90.38,90.38,0,0,1,1.59-9.54"/><path class="cls-10" d="M6.91,71.61a17,17,0,0,0-3.13,3.47,93,93,0,0,0-1.59,9.54,17,17,0,0,1,3.18-3.54,93.94,93.94,0,0,1,1.54-9.47"/><path class="cls-10" d="M12.1,68a34.27,34.27,0,0,0-5,3.4A93.93,93.93,0,0,0,5.6,80.89a33.75,33.75,0,0,1,5.05-3.45A94.43,94.43,0,0,1,12.1,68"/><path class="cls-8" d="M19.05,64.66a59.5,59.5,0,0,0-6.63,3.18A94.68,94.68,0,0,0,11,77.25,62.26,62.26,0,0,1,17.71,74q.46-4.8,1.34-9.36"/><path class="cls-6" d="M27.41,61.67c-2.85.89-5.51,1.83-8,2.82-.58,3-1,6.17-1.33,9.36,2.49-1,5.2-2,8.1-2.87.27-3.18.67-6.29,1.19-9.31"/><path class="cls-2" d="M37,59.08c-3.2.75-6.25,1.57-9.12,2.45q-.78,4.53-1.19,9.31c2.91-.9,6-1.73,9.28-2.49q.36-4.77,1-9.27"/><path class="cls-7" d="M47.66,56.89q-5.28.95-10.13,2.07-.68,4.49-1,9.26,4.92-1.14,10.3-2.1c.2-3.16.48-6.24.86-9.23"/><path class="cls-10" d="M59.18,55.13c-3.76.49-7.42,1-11,1.66q-.55,4.47-.85,9.23,5.38-.94,11.14-1.69c.15-3.16.37-6.22.66-9.2"/><path class="cls-7" d="M71.41,53.82q-5.94.51-11.61,1.24c-.28,3-.5,6-.66,9.19C63,63.76,66.93,63.35,71,63c.1-3.16.26-6.22.46-9.18"/><path class="cls-7" d="M84.16,53q-6.15.3-12.1.8-.3,4.44-.45,9.18c4-.34,8.14-.62,12.3-.81,0-3.16.14-6.21.25-9.17"/><path class="cls-6" d="M6.38,65.6a9.86,9.86,0,0,0-1,2c-.9,3-2.12,7-2.87,10a9.85,9.85,0,0,1,1.24-2.91,89.15,89.15,0,0,1,2.6-9.12"/><path class="cls-6" d="M9.54,62a16.3,16.3,0,0,0-3,3.37,89.11,89.11,0,0,0-2.59,9.12A16.32,16.32,0,0,1,7,71.07a90.92,90.92,0,0,1,2.51-9"/><path class="cls-10" d="M14.58,58.55a32.23,32.23,0,0,0-4.82,3.31,87.39,87.39,0,0,0-2.51,9,33.59,33.59,0,0,1,5-3.4,90.6,90.6,0,0,1,2.37-8.93"/><path class="cls-5" d="M21.33,55.29a59.63,59.63,0,0,0-6.44,3.08q-1.38,4.34-2.36,8.93a62,62,0,0,1,6.62-3.18c.6-3,1.33-6,2.18-8.83"/><path class="cls-6" d="M29.46,52.38c-2.77.86-5.36,1.78-7.74,2.75-.85,2.85-1.57,5.8-2.17,8.83,2.45-1,5.11-1.94,8-2.82q.81-4.52,2-8.76"/><path class="cls-9" d="M38.78,49.86Q34.1,51,29.91,52.24,28.77,56.49,28,61c2.86-.88,5.91-1.69,9.12-2.45.46-3,1-5.89,1.69-8.69"/><path class="cls-9" d="M49.13,47.74q-5.13.91-9.84,2-1,4.2-1.68,8.69c3.22-.75,6.6-1.44,10.11-2.06q.59-4.47,1.41-8.63"/><path class="cls-7" d="M60.33,46q-5.49.7-10.64,1.61c-.55,2.78-1,5.65-1.39,8.63,3.52-.62,7.18-1.17,10.93-1.66q.45-4.44,1.1-8.58"/><path class="cls-6" d="M72.21,44.75q-5.77.51-11.28,1.2-.63,4.14-1.08,8.58c3.77-.48,7.65-.89,11.59-1.23.21-2.95.47-5.81.77-8.55"/><path class="cls-3" d="M84.59,43.92c-4,.19-7.9.45-11.75.78q-.44,4.11-.74,8.54c4-.34,8-.6,12.08-.8.11-2.94.25-5.79.41-8.52"/><path class="cls-4" d="M10.1,56.42c-.21.34-.39.68-.56,1L7.45,62.19,5.61,67a10.51,10.51,0,0,1,.95-1.94,91.13,91.13,0,0,1,3.54-8.65"/><path class="cls-6" d="M13.14,53a15.6,15.6,0,0,0-2.92,3.24,88.57,88.57,0,0,0-3.54,8.65,16.56,16.56,0,0,1,3-3.37A87,87,0,0,1,13.14,53"/><path class="cls-8" d="M18,49.65a31.24,31.24,0,0,0-4.63,3.17,88,88,0,0,0-3.42,8.52A32.23,32.23,0,0,1,14.75,58,86.12,86.12,0,0,1,18,49.65"/><path class="cls-2" d="M24.46,46.52a55.75,55.75,0,0,0-6.18,3,87.49,87.49,0,0,0-3.22,8.38,58.55,58.55,0,0,1,6.43-3.08,85.79,85.79,0,0,1,3-8.26"/><path class="cls-6" d="M32.26,43.73q-4,1.23-7.43,2.63c-1.1,2.66-2.09,5.42-3,8.26,2.38-1,5-1.88,7.72-2.73q1.17-4.23,2.67-8.16"/><path class="cls-10" d="M41.21,41.31c-3,.71-5.84,1.47-8.51,2.29-1,2.61-1.88,5.33-2.65,8.15,2.78-.85,5.74-1.65,8.85-2.38.67-2.79,1.45-5.48,2.31-8.06"/><path class="cls-7" d="M51.15,39.27c-3.28.58-6.44,1.23-9.45,1.93q-1.29,3.87-2.29,8c3.13-.73,6.41-1.39,9.81-2q.86-4.14,1.93-8"/><path class="cls-5" d="M61.9,37.63q-5.26.67-10.22,1.55-1.07,3.82-1.9,8,5.14-.9,10.62-1.61.66-4.11,1.5-7.91"/><path class="cls-3" d="M73.3,36.4q-5.53.48-10.82,1.16c-.55,2.52-1,5.16-1.48,7.91q5.49-.7,11.26-1.2c.3-2.73.65-5.36,1-7.87"/><path class="cls-5" d="M85.19,35.6c-3.81.19-7.58.44-11.28.75q-.57,3.76-1,7.86c3.84-.32,7.76-.58,11.73-.77.17-2.72.36-5.34.57-7.84"/><path class="cls-7" d="M14.77,47.78s0,0,0,.08c-1.51,2.69-3.55,6.26-4.92,9a8.38,8.38,0,0,1,.53-1,90,90,0,0,1,4.43-8.14"/><path class="cls-6" d="M17.65,44.54a14.81,14.81,0,0,0-2.77,3.07,89.79,89.79,0,0,0-4.43,8.13,15.82,15.82,0,0,1,2.92-3.23,83.29,83.29,0,0,1,4.28-8"/><path class="cls-3" d="M22.24,41.37a29.07,29.07,0,0,0-4.39,3,85.42,85.42,0,0,0-4.28,8,31.64,31.64,0,0,1,4.62-3.17,85.72,85.72,0,0,1,4-7.8"/><path class="cls-3" d="M28.38,38.4a51.72,51.72,0,0,0-5.86,2.81,85.39,85.39,0,0,0-4,7.79,56.45,56.45,0,0,1,6.17-3,80.81,80.81,0,0,1,3.72-7.65"/><path class="cls-11" d="M35.78,35.76c-2.52.78-4.88,1.61-7,2.49A83,83,0,0,0,25,45.89c2.28-.93,4.76-1.8,7.41-2.62a80.1,80.1,0,0,1,3.34-7.51"/><path class="cls-7" d="M44.26,33.46q-4.26,1-8.07,2.17c-1.21,2.39-2.31,4.9-3.32,7.5,2.67-.81,5.51-1.57,8.5-2.28.87-2.57,1.84-5,2.89-7.39"/><path class="cls-5" d="M53.68,31.53c-3.11.55-6.1,1.16-9,1.82-1,2.35-2,4.82-2.88,7.39q4.51-1.05,9.42-1.92,1.09-3.81,2.41-7.29"/><path class="cls-2" d="M63.87,30q-5,.64-9.68,1.47c-.87,2.31-1.66,4.75-2.38,7.29,3.28-.58,6.69-1.09,10.19-1.55.56-2.51,1.19-4.92,1.87-7.21"/><path class="cls-10" d="M74.68,28.81c-3.5.3-6.93.67-10.26,1.09q-1,3.43-1.85,7.21c3.51-.45,7.12-.83,10.8-1.15.4-2.5.83-4.89,1.31-7.15"/><path class="cls-6" d="M86,28.05c-3.62.18-7.19.41-10.69.71q-.7,3.4-1.28,7.15,5.53-.48,11.25-.75c.22-2.48.46-4.86.72-7.11"/><path class="cls-4" d="M15.16,47.16l-.11.18s0,0,0,0,.07-.11.1-.16"/><path class="cls-11" d="M23,36.72A16.09,16.09,0,0,0,21,38.83c-1.47,2.05-3.48,4.74-4.87,6.85-.31.48-.62,1-.93,1.47a14.46,14.46,0,0,1,2.76-3.06A85.31,85.31,0,0,1,23,36.72"/><path class="cls-3" d="M27.3,33.75a28,28,0,0,0-4.1,2.82,85.58,85.58,0,0,0-5.08,7.35,29.44,29.44,0,0,1,4.38-3,80.81,80.81,0,0,1,4.8-7.18"/><path class="cls-6" d="M33.05,31a51.05,51.05,0,0,0-5.48,2.62,82,82,0,0,0-4.79,7.17A54,54,0,0,1,28.62,38a77.4,77.4,0,0,1,4.43-7"/><path class="cls-9" d="M40,28.51c-2.35.73-4.55,1.51-6.58,2.33a80.84,80.84,0,0,0-4.41,7q3.26-1.32,7-2.49a75.56,75.56,0,0,1,4-6.82"/><path class="cls-4" d="M47.89,26.37c-2.66.62-5.18,1.3-7.55,2a76.37,76.37,0,0,0-3.94,6.82c2.53-.77,5.22-1.5,8.05-2.16a73.42,73.42,0,0,1,3.44-6.68"/><path class="cls-6" d="M56.69,24.56c-2.9.52-5.7,1.08-8.37,1.7C47.1,28.37,46,30.6,44.91,32.94c2.84-.66,5.83-1.27,8.92-1.82q1.34-3.45,2.86-6.56"/><path class="cls-11" d="M66.22,23.1c-3.11.41-6.14.86-9,1.38-1,2.06-2,4.25-2.83,6.55Q59,30.22,64,29.57q1-3.41,2.23-6.47"/><path class="cls-2" d="M76.32,22q-4.91.42-9.59,1c-.78,2-1.52,4.19-2.2,6.46,3.33-.42,6.75-.79,10.24-1.09Q75.49,25,76.32,22"/><path class="cls-11" d="M86.86,21.31c-3.38.16-6.72.38-10,.66q-.81,3-1.52,6.39c3.49-.29,7-.53,10.66-.7q.39-3.36.86-6.35"/><path class="cls-5" d="M29.18,29.6a12.2,12.2,0,0,0-1,.91l-3.64,4-3.22,3.89a14.61,14.61,0,0,1,2-2,84.77,84.77,0,0,1,5.84-6.71"/><path class="cls-11" d="M33.12,26.87a26.35,26.35,0,0,0-3.78,2.58,86.48,86.48,0,0,0-5.82,6.7,27.88,27.88,0,0,1,4.09-2.8,79.78,79.78,0,0,1,5.51-6.48"/><path class="cls-10" d="M38.4,24.31a47.49,47.49,0,0,0-5,2.42,77.74,77.74,0,0,0-5.49,6.47,51.41,51.41,0,0,1,5.45-2.61,74.44,74.44,0,0,1,5.08-6.28"/><path class="cls-8" d="M44.76,22c-2.16.67-4.19,1.39-6,2.15a71.91,71.91,0,0,0-5.05,6.26c2-.82,4.21-1.59,6.55-2.32A68.89,68.89,0,0,1,44.76,22"/><path class="cls-4" d="M52.06,20.07c-2.44.58-4.76,1.2-6.94,1.86A68.06,68.06,0,0,0,40.59,28c2.36-.72,4.88-1.39,7.52-2a63.44,63.44,0,0,1,4-5.92"/><path class="cls-2" d="M60.15,18.41c-2.67.47-5.24,1-7.7,1.57a63.67,63.67,0,0,0-3.91,5.91c2.65-.61,5.44-1.18,8.33-1.69a63.49,63.49,0,0,1,3.28-5.79"/><path class="cls-10" d="M68.92,17.07c-2.86.37-5.65.79-8.33,1.26a64.52,64.52,0,0,0-3.24,5.78c2.9-.51,5.91-1,9-1.36.8-2,1.65-3.92,2.56-5.68"/><path class="cls-7" d="M78.21,16.07c-3,.26-6,.58-8.82.94-.89,1.76-1.73,3.66-2.52,5.67,3.1-.39,6.3-.73,9.55-1,.56-2,1.16-3.86,1.79-5.6"/><path class="cls-9" d="M87.9,15.42c-3.11.15-6.18.35-9.19.61-.62,1.73-1.21,3.6-1.75,5.59q4.89-.42,10-.66c.31-2,.64-3.82,1-5.54"/><path class="cls-8" d="M34.48,24.57c-1.76,1.64-4.15,3.78-5.84,5.49q.42-.42.9-.84,2.37-2.43,4.94-4.65"/><path class="cls-11" d="M39.63,20.75A24.21,24.21,0,0,0,36.35,23l-.84.7q-3,2.57-5.8,5.4a25.16,25.16,0,0,1,3.75-2.57,77.9,77.9,0,0,1,6.17-5.76"/><path class="cls-7" d="M44.4,18.45a41.15,41.15,0,0,0-4.55,2.18,77.25,77.25,0,0,0-6.14,5.74,46.92,46.92,0,0,1,5-2.41,68.55,68.55,0,0,1,5.68-5.51"/><path class="cls-9" d="M50.14,16.4c-2,.6-3.78,1.25-5.47,1.93A71.52,71.52,0,0,0,39,23.84c1.86-.75,3.87-1.47,6-2.13a59.64,59.64,0,0,1,5.09-5.31"/><path class="cls-10" d="M56.72,14.62q-3.3.78-6.26,1.68a60.6,60.6,0,0,0-5.06,5.3q3.26-1,6.9-1.86a56.66,56.66,0,0,1,4.42-5.12"/><path class="cls-3" d="M64,13.12q-3.62.65-7,1.41a56.32,56.32,0,0,0-4.38,5.12c2.44-.57,5-1.09,7.66-1.56a49.55,49.55,0,0,1,3.67-5"/><path class="cls-10" d="M71.94,11.91c-2.58.33-5.09.72-7.52,1.14a53.78,53.78,0,0,0-3.63,5c2.67-.46,5.44-.88,8.29-1.25a47.34,47.34,0,0,1,2.86-4.85"/><path class="cls-2" d="M80.33,11c-2.72.23-5.38.52-8,.85a51,51,0,0,0-2.82,4.84c2.86-.36,5.79-.68,8.78-.94q1-2.58,2-4.75"/><path class="cls-6" d="M89.07,10.42c-2.8.14-5.58.32-8.3.55q-1,2.17-2,4.75c3-.25,6.06-.45,9.15-.6.36-1.7.73-3.27,1.11-4.7"/><path class="cls-6" d="M46.79,15.46q-.55.31-1,.63C43,18,39.45,20.54,36.84,22.58A22.65,22.65,0,0,1,40,20.44a74.69,74.69,0,0,1,6.78-5"/><path class="cls-5" d="M51,13.43a38.58,38.58,0,0,0-4,1.92,76,76,0,0,0-6.75,5,40.62,40.62,0,0,1,4.52-2.16A65.9,65.9,0,0,1,51,13.43"/><path class="cls-5" d="M56.05,11.63q-2.59.8-4.82,1.7A68.38,68.38,0,0,0,45,18q2.52-1,5.43-1.92a56.35,56.35,0,0,1,5.6-4.48"/><path class="cls-6" d="M61.85,10.06c-1.94.45-3.79.95-5.52,1.48A57.25,57.25,0,0,0,50.77,16c1.95-.6,4-1.15,6.22-1.67a49.63,49.63,0,0,1,4.86-4.28"/><path class="cls-11" d="M68.29,8.73Q65.1,9.3,62.17,10a48.11,48.11,0,0,0-4.82,4.28c2.2-.51,4.51-1,6.91-1.41a41.44,41.44,0,0,1,4-4.12"/><path class="cls-5" d="M75.26,7.67q-3.42.45-6.62,1a40,40,0,0,0-4,4.11c2.4-.42,4.9-.8,7.46-1.13a37.31,37.31,0,0,1,3.15-4"/><path class="cls-6" d="M82.65,6.87c-2.39.21-4.74.46-7,.75a36,36,0,0,0-3.09,4q3.85-.49,7.91-.85a35.77,35.77,0,0,1,2.2-3.88"/><path class="cls-9" d="M90.36,6.36c-2.47.12-4.92.28-7.31.48a34.66,34.66,0,0,0-2.16,3.87c2.71-.22,5.46-.41,8.25-.54.39-1.41.8-2.69,1.22-3.81"/><path class="cls-10" d="M50.4,13.25l-4.12,2.5c.29-.19.6-.37.92-.55,1-.68,2.11-1.33,3.2-1.95"/><path class="cls-6" d="M58.11,9.32c-.64.26-1.25.54-1.84.82-1.55.81-3.65,1.86-5.18,2.72-1.26.71-2.49,1.45-3.7,2.23a36.09,36.09,0,0,1,4-1.91,65.17,65.17,0,0,1,6.74-3.86"/><path class="cls-6" d="M62.43,7.77c-1.47.46-2.84,1-4.11,1.46a64.65,64.65,0,0,0-6.71,3.85c1.47-.6,3.07-1.16,4.78-1.69a53,53,0,0,1,6-3.62"/><path class="cls-9" d="M67.39,6.43c-1.66.39-3.23.82-4.71,1.27a52.47,52.47,0,0,0-6,3.6c1.72-.53,3.55-1,5.47-1.47a43.49,43.49,0,0,1,5.25-3.4"/><path class="cls-2" d="M72.9,5.3c-1.82.33-3.57.68-5.24,1.07a42.85,42.85,0,0,0-5.2,3.39c1.94-.45,4-.87,6.08-1.24A32.84,32.84,0,0,1,72.9,5.3"/><path class="cls-11" d="M78.85,4.4q-2.91.38-5.66.85a34.63,34.63,0,0,0-4.31,3.21c2.12-.37,4.31-.71,6.57-1a25.88,25.88,0,0,1,3.4-3.06"/><path class="cls-9" d="M85.17,3.71c-2,.18-4,.4-6,.64a26.39,26.39,0,0,0-3.35,3.07q3.41-.44,7-.75a21.06,21.06,0,0,1,2.38-3"/><path class="cls-2" d="M91.75,3.27c-2.11.1-4.2.24-6.24.42a19.57,19.57,0,0,0-2.33,2.95q3.57-.3,7.25-.48a24.2,24.2,0,0,1,1.32-2.89"/><path class="cls-10" d="M61.72,7.67,56.9,9.83c.52-.24,1.06-.48,1.63-.71,1-.52,2.11-1,3.19-1.45"/><path class="cls-6" d="M69.26,4.89l-.92.3C66.92,5.7,65,6.36,63.62,6.9l-1.32.53c-1.21.5-2.4,1-3.57,1.6C60,8.52,61.35,8,62.8,7.59a50.64,50.64,0,0,1,6.46-2.7"/><path class="cls-10" d="M73.32,3.79c-1.36.32-2.65.67-3.86,1A50,50,0,0,0,63,7.51c1.47-.45,3-.86,4.67-1.25a39.84,39.84,0,0,1,5.61-2.47"/><path class="cls-5" d="M77.82,2.87c-1.48.26-2.92.55-4.28.87A39.2,39.2,0,0,0,68,6.2q2.47-.59,5.18-1.06a28.21,28.21,0,0,1,4.66-2.27"/><path class="cls-11" d="M82.69,2.13c-1.59.2-3.13.43-4.62.7a27.69,27.69,0,0,0-4.61,2.26q2.7-.48,5.6-.85a19.76,19.76,0,0,1,3.63-2.11"/><path class="cls-9" d="M87.86,1.57c-1.67.14-3.31.32-4.91.52A19.56,19.56,0,0,0,79.38,4.2q2.9-.37,5.93-.63a13.07,13.07,0,0,1,2.55-2"/><path class="cls-3" d="M93.25,1.21c-1.73.08-3.44.19-5.12.34a12,12,0,0,0-2.48,2q3-.25,6.19-.41a8.76,8.76,0,0,1,1.41-1.92"/><path class="cls-8" d="M70.31,4.55l-1.23.39.58-.18.65-.21"/><path class="cls-10" d="M77,2.7c-1.27.33-3,.75-4.22,1.1l-2.09.62-.87.28q1.8-.56,3.81-1c1.1-.38,2.23-.7,3.37-1"/><path class="cls-6" d="M82.53,1.56l-2.71.52-2.48.55c-1.17.28-2.33.61-3.46,1,1.34-.31,2.76-.6,4.22-.86a27.37,27.37,0,0,1,4.43-1.2"/><path class="cls-3" d="M86.76.91c-.79.1-1.56.21-2.32.33l-1.66.28a26.49,26.49,0,0,0-4.44,1.2c1.48-.26,3-.49,4.57-.69A16.6,16.6,0,0,1,86.76.91"/><path class="cls-8" d="M90.71.48c-1.28.11-2.53.25-3.75.4A15.54,15.54,0,0,0,83.17,2c1.58-.21,3.19-.38,4.85-.52a8.71,8.71,0,0,1,2.69-1"/><path class="cls-8" d="M94.83.2c-1.32.07-2.63.15-3.91.26a8.38,8.38,0,0,0-2.63,1c1.65-.14,3.34-.25,5-.34A3.7,3.7,0,0,1,94.83.2"/><path class="cls-10" d="M87.24.83l-1.69.24L87,.87l.25,0"/><path class="cls-8" d="M91.46.38l-.95.08c-.92.1-2.13.23-3.05.35l-.28,0Q89,.62,90.87.45l.59-.07"/><path class="cls-4" d="M95.38.11l-.33,0c-1,.06-2.37.15-3.39.23l-.58.07c1.26-.1,2.54-.19,3.84-.25a2.44,2.44,0,0,1,.46-.07"/><path class="cls-10" d="M100,193l-1.3,0a32.14,32.14,0,0,0,1.61,3.31c-.1-1-.21-2.08-.31-3.35"/><path class="cls-6" d="M101.42,193H100.1c.08,1.27.16,2.38.24,3.35.36-1,.72-2.08,1.08-3.34"/><path class="cls-8" d="M102.8,193.1l-1.31-.07c-.38,1.27-.76,2.38-1.15,3.34a28.42,28.42,0,0,0,2.46-3.27"/><path class="cls-9" d="M104.17,193.22q-.65-.08-1.29-.12a28.59,28.59,0,0,1-2.54,3.27,32.72,32.72,0,0,0,3.83-3.15"/><path class="cls-2" d="M105.49,193.4l-.64-.1-.61-.07a33.33,33.33,0,0,1-3.9,3.14,41.4,41.4,0,0,0,5.15-3"/><path class="cls-10" d="M106.68,193.62c-.36-.08-.73-.15-1.13-.21a43.28,43.28,0,0,1-5.21,3,51.7,51.7,0,0,0,6.34-2.75"/><path class="cls-7" d="M107.72,193.88c-.3-.09-.63-.17-1-.25a54.73,54.73,0,0,1-6.4,2.74,66,66,0,0,0,7.38-2.49"/><path class="cls-11" d="M108.62,194.17c-.26-.1-.54-.19-.85-.28a64.74,64.74,0,0,1-7.43,2.48,77.1,77.1,0,0,0,8.28-2.2"/><path class="cls-7" d="M109.35,194.49c-.2-.1-.44-.2-.69-.3a77.08,77.08,0,0,1-8.32,2.18,85.74,85.74,0,0,0,9-1.88"/><path class="cls-2" d="M109.92,194.84a4.91,4.91,0,0,0-.53-.33,86.93,86.93,0,0,1-9,1.86,95.07,95.07,0,0,0,9.58-1.53"/><path class="cls-7" d="M110.32,195.2a2.49,2.49,0,0,0-.37-.34q-4.74,1-9.61,1.51,5.05-.35,10-1.17"/><path class="cls-2" d="M110.55,195.58a1.68,1.68,0,0,0-.21-.36c-3.29.54-6.63.93-10,1.15,3.45-.1,6.85-.37,10.21-.79"/><path class="cls-7" d="M110.58,196a.74.74,0,0,0,0-.36c-3.35.41-6.76.67-10.21.77,3.46,0,6.88-.11,10.24-.41"/><path class="cls-6" d="M110.43,196.35a.91.91,0,0,0,.15-.37c-3.36.29-6.78.42-10.24.39,3.41.16,6.78.15,10.09,0"/><path class="cls-3" d="M110.09,196.73a1.8,1.8,0,0,0,.33-.36q-5,.24-10.08,0a94.27,94.27,0,0,0,9.75.36"/><path class="cls-8" d="M109.54,197.1a2.76,2.76,0,0,0,.52-.35,93.9,93.9,0,0,1-9.72-.39,83.17,83.17,0,0,0,9.2.74"/><path class="cls-10" d="M99.7,188.48c-.89,0-1.77,0-2.64.07.51,1.57,1,3,1.57,4.28l1.38,0c-.1-1.29-.21-2.73-.31-4.31"/><path class="cls-8" d="M102.53,188.5c-.89,0-1.79,0-2.68,0,.08,1.58.16,3,.24,4.31h1.39c.36-1.28.71-2.72,1-4.3"/><path class="cls-9" d="M105.35,188.64c-.88-.06-1.78-.11-2.67-.13-.37,1.57-.74,3-1.12,4.3.46,0,.93,0,1.39.06.81-1.26,1.61-2.68,2.4-4.23"/><path class="cls-7" d="M108.14,188.88c-.87-.09-1.76-.17-2.64-.23a47.82,47.82,0,0,1-2.48,4.23c.47,0,.92.07,1.38.12a46.11,46.11,0,0,0,3.74-4.12"/><path class="cls-4" d="M110.82,189.24l-1.29-.19c-.42-.05-.83-.11-1.25-.15a46.24,46.24,0,0,1-3.81,4.11l.65.08.67.1a52.69,52.69,0,0,0,5-3.95"/><path class="cls-4" d="M113.24,189.69c-.72-.15-1.48-.3-2.29-.43a51.6,51.6,0,0,1-5.09,3.94c.42.07.82.14,1.19.23a61.35,61.35,0,0,0,6.19-3.74"/><path class="cls-2" d="M115.37,190.22c-.62-.18-1.3-.34-2-.5a61.92,61.92,0,0,1-6.25,3.72c.37.08.72.17,1,.26a70.12,70.12,0,0,0,7.21-3.48"/><path class="cls-2" d="M117.19,190.82c-.53-.2-1.1-.39-1.72-.57a72.93,72.93,0,0,1-7.26,3.47c.32.09.62.19.89.29a80.83,80.83,0,0,0,8.09-3.19"/><path class="cls-9" d="M118.69,191.48a13.66,13.66,0,0,0-1.42-.63,81.26,81.26,0,0,1-8.12,3.18,7.24,7.24,0,0,1,.73.32,88.76,88.76,0,0,0,8.81-2.87"/><path class="cls-9" d="M119.85,192.18a9.12,9.12,0,0,0-1.1-.67,88.22,88.22,0,0,1-8.83,2.86,5.06,5.06,0,0,1,.57.35,96.42,96.42,0,0,0,9.36-2.54"/><path class="cls-7" d="M120.66,192.92a4.74,4.74,0,0,0-.76-.7q-4.62,1.49-9.39,2.52a2.88,2.88,0,0,1,.4.36c3.3-.57,6.56-1.3,9.75-2.18"/><path class="cls-3" d="M121.11,193.69a2.19,2.19,0,0,0-.42-.73c-3.2.87-6.46,1.6-9.77,2.16a1.07,1.07,0,0,1,.22.38c3.38-.45,6.71-1.05,10-1.81"/><path class="cls-3" d="M121.19,194.47a1.55,1.55,0,0,0-.06-.74q-4.91,1.13-10,1.79a1,1,0,0,1,0,.39c3.38-.32,6.72-.8,10-1.44"/><path class="cls-9" d="M120.89,195.26a2,2,0,0,0,.3-.75c-3.28.63-6.62,1.11-10,1.42a1,1,0,0,1-.15.39q5-.3,9.86-1.06"/><path class="cls-7" d="M120.18,196a3.55,3.55,0,0,0,.68-.75q-4.85.77-9.85,1.05a2,2,0,0,1-.35.38,90.35,90.35,0,0,0,9.52-.68"/><path class="cls-5" d="M119.08,196.79a6.4,6.4,0,0,0,1-.72,89.79,89.79,0,0,1-9.5.67,3.74,3.74,0,0,1-.55.38,81.14,81.14,0,0,0,9-.33"/><path class="cls-3" d="M99.39,183c-1.33,0-2.64.05-3.94.11q.73,2.77,1.52,5.16c.89-.05,1.8-.07,2.72-.08q-.15-2.4-.3-5.19"/><path class="cls-9" d="M103.6,183c-1.33,0-2.67,0-4,0,.07,1.86.15,3.59.22,5.19.92,0,1.84,0,2.76,0q.51-2.39,1-5.18"/><path class="cls-10" d="M107.8,183.24c-1.32-.09-2.65-.15-4-.19q-.52,2.79-1.08,5.18c.92,0,1.84.07,2.75.13q1.19-2.36,2.31-5.12"/><path class="cls-3" d="M112,183.61c-1.3-.15-2.61-.26-3.93-.35-.78,1.83-1.57,3.54-2.38,5.11.91.06,1.82.14,2.71.24q1.83-2.3,3.6-5"/><path class="cls-8" d="M116,184.14l-1.93-.28-1.86-.23c-1.19,1.8-2.42,3.47-3.66,5l1.28.16,1.33.19a65,65,0,0,0,4.84-4.84"/><path class="cls-2" d="M119.56,184.82c-1.08-.24-2.21-.45-3.42-.64a65.22,65.22,0,0,1-4.9,4.82c.83.14,1.62.29,2.36.45,2-1.41,4-3,6-4.63"/><path class="cls-2" d="M122.73,185.61q-1.4-.41-3-.75a72.78,72.78,0,0,1-6,4.61c.73.17,1.42.34,2.07.52a80.37,80.37,0,0,0,6.94-4.38"/><path class="cls-5" d="M125.44,186.5c-.79-.3-1.64-.58-2.56-.85a81.93,81.93,0,0,1-7,4.37c.64.19,1.22.38,1.76.59a87.92,87.92,0,0,0,7.79-4.11"/><path class="cls-5" d="M127.67,187.48a20.13,20.13,0,0,0-2.11-.93,86.85,86.85,0,0,1-7.82,4.09,15.61,15.61,0,0,1,1.45.64c2.88-1.12,5.71-2.4,8.48-3.8"/><path class="cls-8" d="M129.4,188.52a12.76,12.76,0,0,0-1.63-1q-4.17,2.1-8.51,3.79a8.87,8.87,0,0,1,1.13.68c3.06-1,6.07-2.18,9-3.48"/><path class="cls-3" d="M130.61,189.63a6.51,6.51,0,0,0-1.14-1q-4.43,1.95-9,3.46a4.61,4.61,0,0,1,.78.72q4.8-1.35,9.39-3.13"/><path class="cls-9" d="M131.29,190.77a3.7,3.7,0,0,0-.63-1.09q-4.6,1.78-9.4,3.13a2.45,2.45,0,0,1,.43.74q4.89-1.17,9.6-2.78"/><path class="cls-9" d="M131.4,191.93a2.29,2.29,0,0,0-.1-1.1c-3.13,1.06-6.33,2-9.6,2.76a1.52,1.52,0,0,1,.07.76,98.23,98.23,0,0,0,9.63-2.42"/><path class="cls-3" d="M131,193.1a3,3,0,0,0,.44-1.11q-4.71,1.42-9.62,2.41a2.22,2.22,0,0,1-.31.76A95.78,95.78,0,0,0,131,193.1"/><path class="cls-7" d="M129.89,194.27a5.72,5.72,0,0,0,1-1.11,95.53,95.53,0,0,1-9.48,2,3.48,3.48,0,0,1-.7.76,91.35,91.35,0,0,0,9.16-1.69"/><path class="cls-10" d="M128.25,195.39a10.2,10.2,0,0,0,1.57-1.07,87.73,87.73,0,0,1-9.14,1.69,7.91,7.91,0,0,1-1.09.73,76.57,76.57,0,0,0,8.66-1.35"/><path class="cls-5" d="M99.09,176.68c-1.74,0-3.47.07-5.18.15q.7,3.16,1.45,6c1.32-.06,2.66-.1,4-.11q-.15-2.82-.28-6"/><path class="cls-5" d="M104.62,176.73c-1.75,0-3.51-.06-5.25,0,.07,2.12.15,4.12.22,6,1.35,0,2.71,0,4.07,0q.5-2.81,1-6"/><path class="cls-3" d="M110.14,177c-1.74-.11-3.48-.2-5.23-.25-.34,2.11-.68,4.11-1,6,1.35,0,2.71.1,4.06.2.75-1.85,1.49-3.83,2.2-5.93"/><path class="cls-10" d="M115.59,177.48c-1.7-.19-3.43-.35-5.16-.47-.74,2.09-1.5,4.07-2.27,5.92,1.34.09,2.68.21,4,.36,1.17-1.81,2.31-3.76,3.43-5.81"/><path class="cls-9" d="M120.84,178.18c-.82-.13-1.67-.26-2.53-.37s-1.62-.21-2.44-.3c-1.14,2.05-2.31,4-3.5,5.8.64.08,1.27.15,1.89.24s1.33.18,2,.29c1.58-1.77,3.12-3.65,4.62-5.66"/><path class="cls-6" d="M125.58,179.06c-1.41-.3-2.9-.58-4.48-.84-1.52,2-3.08,3.89-4.67,5.65,1.22.2,2.38.41,3.47.65,1.94-1.69,3.84-3.52,5.68-5.46"/><path class="cls-6" d="M129.75,180.1c-1.23-.35-2.54-.68-3.94-1-1.86,1.94-3.78,3.76-5.73,5.45,1.08.24,2.1.49,3,.76q3.39-2.41,6.63-5.22"/><path class="cls-5" d="M133.31,181.27q-1.55-.59-3.36-1.11c-2.17,1.86-4.4,3.6-6.67,5.21.94.27,1.81.56,2.6.86q3.81-2.28,7.43-5"/><path class="cls-10" d="M136.24,182.56a29.27,29.27,0,0,0-2.77-1.23q-3.63,2.67-7.46,4.95a20.68,20.68,0,0,1,2.14.95q4.14-2.14,8.09-4.67"/><path class="cls-10" d="M138.51,183.93a16.13,16.13,0,0,0-2.14-1.3q-4,2.52-8.11,4.65a13.53,13.53,0,0,1,1.65,1q4.41-2,8.6-4.36"/><path class="cls-9" d="M140.1,185.38a8.33,8.33,0,0,0-1.49-1.37c-2.8,1.57-5.68,3-8.62,4.34a7.14,7.14,0,0,1,1.16,1.06q4.57-1.8,8.95-4"/><path class="cls-6" d="M141,186.88a4.5,4.5,0,0,0-.82-1.42q-4.38,2.21-9,4a3.62,3.62,0,0,1,.64,1.11c3.12-1.1,6.18-2.33,9.15-3.7"/><path class="cls-8" d="M141.15,188.41A3.25,3.25,0,0,0,141,187q-4.47,2-9.16,3.68a2.51,2.51,0,0,1,.1,1.12q4.69-1.45,9.19-3.35"/><path class="cls-8" d="M140.55,190a4.16,4.16,0,0,0,.59-1.46q-4.48,1.88-9.19,3.33a3.1,3.1,0,0,1-.46,1.13,95.14,95.14,0,0,0,9.06-3"/><path class="cls-9" d="M139.16,191.47a6.74,6.74,0,0,0,1.33-1.44,93.74,93.74,0,0,1-9,3,5.55,5.55,0,0,1-1,1.13,85,85,0,0,0,8.74-2.67"/><path class="cls-8" d="M137,193a14.56,14.56,0,0,0,2.07-1.41,87.88,87.88,0,0,1-8.72,2.65,11,11,0,0,1-1.61,1.08A75.8,75.8,0,0,0,137,193"/><path class="cls-4" d="M98.8,169.58q-3.21,0-6.35.18c.44,2.34.9,4.58,1.37,6.7,1.73-.08,3.49-.13,5.25-.15-.09-2.13-.18-4.38-.27-6.73"/><path class="cls-2" d="M105.58,169.64c-2.15-.06-4.3-.08-6.43-.06q.1,3.53.21,6.73c1.76,0,3.54,0,5.31.05.31-2.13.62-4.37.91-6.72"/><path class="cls-8" d="M112.35,170q-3.19-.21-6.42-.31-.47,3.53-1,6.72c1.78,0,3.55.13,5.31.25.71-2.11,1.41-4.33,2.08-6.66"/><path class="cls-2" d="M119,170.55c-2.08-.23-4.2-.41-6.33-.56-.69,2.32-1.41,4.54-2.14,6.65,1.76.12,3.5.28,5.23.47q1.67-3.11,3.24-6.56"/><path class="cls-2" d="M125.47,171.42c-1-.17-2-.32-3.11-.46l-3-.37c-1.07,2.29-2.17,4.48-3.3,6.55.83.09,1.65.2,2.47.31s1.73.24,2.56.37c1.5-2,3-4.16,4.37-6.4"/><path class="cls-7" d="M131.29,172.5c-1.73-.37-3.57-.72-5.5-1-1.43,2.24-2.91,4.38-4.42,6.4,1.6.25,3.11.54,4.54.85,1.84-2,3.64-4,5.38-6.22"/><path class="cls-9" d="M136.39,173.77q-2.25-.65-4.82-1.21-2.64,3.27-5.43,6.21c1.42.31,2.75.64,4,1q3.21-2.82,6.26-6"/><path class="cls-9" d="M140.75,175.21c-1.25-.48-2.63-.93-4.12-1.37q-3.06,3.16-6.3,6c1.23.35,2.36.73,3.4,1.12q3.61-2.69,7-5.74"/><path class="cls-4" d="M144.35,176.78a36.81,36.81,0,0,0-3.39-1.49q-3.42,3-7.06,5.73a28.8,28.8,0,0,1,2.8,1.24q3.93-2.56,7.65-5.48"/><path class="cls-4" d="M147.14,178.47a21,21,0,0,0-2.63-1.6q-3.72,2.91-7.67,5.46a17.58,17.58,0,0,1,2.16,1.32q4.19-2.4,8.14-5.18"/><path class="cls-8" d="M149.09,180.25a10.43,10.43,0,0,0-1.83-1.69q-4,2.77-8.16,5.16a8.7,8.7,0,0,1,1.52,1.4q4.35-2.25,8.47-4.87"/><path class="cls-2" d="M150.18,182.08a5.78,5.78,0,0,0-1-1.74c-2.75,1.74-5.58,3.37-8.49,4.85a4.82,4.82,0,0,1,.84,1.45q4.46-2.08,8.66-4.56"/><path class="cls-11" d="M150.37,184a4,4,0,0,0-.16-1.78c-2.8,1.64-5.7,3.16-8.67,4.53a3.36,3.36,0,0,1,.14,1.47q4.47-1.91,8.69-4.22"/><path class="cls-9" d="M149.63,185.85a4.72,4.72,0,0,0,.72-1.79c-2.81,1.53-5.71,2.94-8.69,4.2a3.93,3.93,0,0,1-.59,1.48q4.4-1.74,8.56-3.89"/><path class="cls-8" d="M147.94,187.72a8.81,8.81,0,0,0,1.63-1.78,90.6,90.6,0,0,1-8.56,3.88,6.93,6.93,0,0,1-1.34,1.47,85.51,85.51,0,0,0,8.27-3.57"/><path class="cls-2" d="M145.28,189.54a17.74,17.74,0,0,0,2.54-1.72,84,84,0,0,1-8.25,3.55,14.42,14.42,0,0,1-2.1,1.42,74.6,74.6,0,0,0,7.81-3.25"/><path class="cls-8" d="M98.53,161.78q-3.77,0-7.46.21c.42,2.55.85,5,1.3,7.36q3.18-.15,6.41-.18c-.09-2.36-.17-4.83-.25-7.39"/><path class="cls-2" d="M106.48,161.85c-2.52-.07-5-.09-7.54-.07.06,2.56.13,5,.19,7.39q3.24,0,6.5.06.45-3.54.85-7.38"/><path class="cls-9" d="M114.42,162.23q-3.75-.25-7.53-.36-.44,3.82-.9,7.37c2.17.06,4.33.17,6.48.31q1-3.51,2-7.32"/><path class="cls-2" d="M122.25,162.92c-2.44-.27-4.92-.49-7.42-.66-.64,2.53-1.31,5-2,7.32q3.23.21,6.39.57c1-2.31,2.06-4.72,3-7.23"/><path class="cls-7" d="M129.8,163.93c-1.18-.18-2.39-.36-3.64-.53s-2.33-.3-3.51-.43q-1.49,3.75-3.09,7.22c1,.11,2,.23,3,.37s2.12.3,3.14.46c1.4-2.26,2.77-4.62,4.08-7.09"/><path class="cls-7" d="M136.62,165.2q-3-.66-6.44-1.21c-1.34,2.46-2.72,4.83-4.14,7.08,1.95.32,3.81.67,5.55,1q2.61-3.3,5-6.91"/><path class="cls-2" d="M142.61,166.7c-1.76-.51-3.64-1-5.66-1.43-1.63,2.41-3.33,4.71-5.07,6.91q2.6.57,4.87,1.22,3-3.19,5.86-6.7"/><path class="cls-9" d="M147.73,168.38c-1.48-.56-3.09-1.1-4.83-1.6-1.9,2.33-3.87,4.57-5.91,6.69q2.25.66,4.17,1.38,3.39-3.07,6.57-6.47"/><path class="cls-7" d="M151.94,170.23a39.45,39.45,0,0,0-4-1.76q-3.19,3.39-6.61,6.46a34.86,34.86,0,0,1,3.42,1.51q3.71-2.94,7.16-6.21"/><path class="cls-7" d="M155.21,172.21a23.26,23.26,0,0,0-3.07-1.88q-3.48,3.25-7.19,6.2a20.6,20.6,0,0,1,2.65,1.61q3.93-2.79,7.61-5.93"/><path class="cls-7" d="M157.5,174.29a13,13,0,0,0-2.14-2q-3.69,3.13-7.64,5.93a10.28,10.28,0,0,1,1.85,1.7q4.1-2.66,7.93-5.65"/><path class="cls-7" d="M158.78,176.44a6.69,6.69,0,0,0-1.18-2q-3.84,3-7.95,5.63a5.81,5.81,0,0,1,1,1.76q4.2-2.49,8.11-5.35"/><path class="cls-3" d="M159,178.64a4.61,4.61,0,0,0-.19-2.08q-3.91,2.83-8.12,5.33a3.93,3.93,0,0,1,.16,1.8q4.21-2.34,8.15-5.05"/><path class="cls-6" d="M158.14,180.86a5.64,5.64,0,0,0,.85-2.1q-3.93,2.7-8.14,5a4.72,4.72,0,0,1-.73,1.8q4.14-2.18,8-4.73"/><path class="cls-6" d="M156.15,183.05a10.42,10.42,0,0,0,1.92-2.08,91.59,91.59,0,0,1-8,4.72,8.92,8.92,0,0,1-1.64,1.79,83.22,83.22,0,0,0,7.74-4.43"/><path class="cls-6" d="M149.56,187.28l4.42-2.66a18.57,18.57,0,0,0,2-1.46,83,83,0,0,1-7.73,4.42,17.77,17.77,0,0,1-2.56,1.74c1.3-.64,2.58-1.32,3.83-2"/><path class="cls-4" d="M98.27,153.36c-2.84,0-5.67.11-8.47.24.39,2.73.79,5.39,1.2,7.94,2.48-.11,5-.18,7.51-.21-.08-2.57-.16-5.22-.24-8"/><path class="cls-2" d="M107.31,153.44c-2.86-.08-5.73-.11-8.57-.08q.09,4.11.18,8,3.8,0,7.61.07c.27-2.56.53-5.22.78-8"/><path class="cls-7" d="M116.34,153.87c-2.84-.2-5.7-.33-8.56-.42-.27,2.74-.55,5.4-.84,8,2.54.08,5.08.2,7.59.37q.94-3.83,1.81-7.91"/><path class="cls-2" d="M125.23,154.66q-4.17-.47-8.43-.76-.89,4.08-1.85,7.91c2.51.17,5,.4,7.48.67,1-2.52,1.91-5.13,2.8-7.82"/><path class="cls-7" d="M133.81,155.8c-1.34-.21-2.72-.41-4.13-.6s-2.65-.35-4-.49c-.92,2.69-1.87,5.3-2.86,7.81,1.19.14,2.37.28,3.54.44s2.47.35,3.66.54c1.31-2.48,2.57-5,3.78-7.7"/><path class="cls-4" d="M141.56,157.25q-3.45-.75-7.33-1.38c-1.22,2.65-2.49,5.22-3.82,7.69q3.43.56,6.5,1.22,2.42-3.63,4.65-7.53"/><path class="cls-8" d="M148.37,158.94c-2-.57-4.15-1.11-6.43-1.61q-2.25,3.9-4.7,7.52,3,.68,5.7,1.43,2.82-3.53,5.43-7.34"/><path class="cls-2" d="M154.18,160.86q-2.52-1-5.49-1.82-2.62,3.79-5.46,7.33,2.64.76,4.87,1.61,3.17-3.4,6.08-7.12"/><path class="cls-8" d="M159,163c-1.35-.68-2.85-1.35-4.51-2q-2.94,3.71-6.11,7.11a43.69,43.69,0,0,1,4,1.77q3.43-3.28,6.62-6.89"/><path class="cls-4" d="M162.68,165.2a27,27,0,0,0-3.49-2.13q-3.19,3.59-6.65,6.87a23.87,23.87,0,0,1,3.11,1.9q3.65-3.17,7-6.64"/><path class="cls-4" d="M165.29,167.57a15,15,0,0,0-2.44-2.25q-3.39,3.47-7.06,6.62a13.72,13.72,0,0,1,2.17,2q3.81-3,7.33-6.36"/><path class="cls-7" d="M166.74,170a7.56,7.56,0,0,0-1.35-2.33q-3.52,3.34-7.34,6.35a6.86,6.86,0,0,1,1.19,2.07q3.9-2.88,7.5-6.09"/><path class="cls-4" d="M167,172.52a5.16,5.16,0,0,0-.21-2.37q-3.6,3.19-7.5,6.07a4.71,4.71,0,0,1,.19,2.1,94.51,94.51,0,0,0,7.52-5.8"/><path class="cls-2" d="M166,175a6.29,6.29,0,0,0,1-2.38c-2.4,2-4.91,4-7.52,5.79a5.68,5.68,0,0,1-.85,2.11A91.29,91.29,0,0,0,166,175"/><path class="cls-2" d="M163.75,177.53a11.78,11.78,0,0,0,2.18-2.37,91.18,91.18,0,0,1-7.41,5.51,10.53,10.53,0,0,1-1.93,2.1,85.84,85.84,0,0,0,7.16-5.24"/><path class="cls-6" d="M163.31,177.89l.29-.23a85.46,85.46,0,0,1-7.15,5.22,17.72,17.72,0,0,1-1.94,1.4c2.68-1.87,6.23-4.37,8.8-6.39"/><path class="cls-2" d="M98,144.39c-3.16,0-6.3.12-9.4.27q.52,4.34,1.1,8.46c2.81-.13,5.66-.21,8.52-.24-.08-2.75-.15-5.59-.22-8.49"/><path class="cls-2" d="M108.06,144.48c-3.17-.09-6.35-.12-9.51-.09q.09,4.35.18,8.48c2.86,0,5.74,0,8.62.08q.38-4.12.71-8.47"/><path class="cls-7" d="M118.08,145q-4.72-.31-9.5-.46-.36,4.35-.76,8.48c2.88.08,5.76.22,8.62.41q.86-4.09,1.64-8.43"/><path class="cls-7" d="M128,145.82q-4.64-.51-9.36-.83c-.53,2.88-1.1,5.69-1.68,8.43,2.85.19,5.68.45,8.48.76.89-2.71,1.75-5.5,2.56-8.36"/><path class="cls-8" d="M137.46,147.1c-1.49-.24-3-.46-4.58-.67s-2.94-.38-4.43-.55q-1.23,4.29-2.6,8.35c1.35.15,2.68.31,4,.49s2.81.4,4.16.61c1.2-2.66,2.35-5.41,3.44-8.23"/><path class="cls-7" d="M146.06,148.7q-3.83-.82-8.13-1.53-1.65,4.25-3.48,8.23c2.6.42,5.06.89,7.37,1.39q2.24-3.93,4.24-8.09"/><path class="cls-2" d="M153.61,150.58q-3.33-.95-7.13-1.79-2,4.16-4.28,8.08c2.3.5,4.46,1,6.47,1.62q2.6-3.83,4.94-7.91"/><path class="cls-4" d="M160.06,152.71c-1.86-.71-3.89-1.39-6.09-2q-2.37,4.06-5,7.9c2,.58,3.84,1.19,5.52,1.83,1.94-2.48,3.79-5.06,5.54-7.71"/><path class="cls-8" d="M165.37,155a52.26,52.26,0,0,0-5-2.21q-2.64,4-5.56,7.7a49.41,49.41,0,0,1,4.54,2c2.11-2.4,4.12-4.91,6-7.5"/><path class="cls-8" d="M169.49,157.53a30.32,30.32,0,0,0-3.88-2.37q-2.87,3.87-6.05,7.49a27.49,27.49,0,0,1,3.52,2.14c2.24-2.32,4.38-4.75,6.41-7.26"/><path class="cls-8" d="M172.38,160.15a16.49,16.49,0,0,0-2.7-2.49q-3.06,3.76-6.43,7.25a15.11,15.11,0,0,1,2.45,2.26c2.33-2.24,4.57-4.58,6.68-7"/><path class="cls-2" d="M174,162.87a8.56,8.56,0,0,0-1.49-2.58c-2.12,2.43-4.36,4.77-6.69,7a7.6,7.6,0,0,1,1.35,2.34q3.59-3.22,6.83-6.77"/><path class="cls-2" d="M174.27,165.64A5.75,5.75,0,0,0,174,163q-3.25,3.54-6.83,6.76a5.36,5.36,0,0,1,.21,2.38q3.59-3.09,6.85-6.51"/><path class="cls-2" d="M173.18,168.43a7,7,0,0,0,1.07-2.65,93.45,93.45,0,0,1-6.85,6.5,6.57,6.57,0,0,1-1,2.4,90.79,90.79,0,0,0,6.75-6.25"/><path class="cls-10" d="M165.58,176l2.54-2.26,3.58-3.47a11.61,11.61,0,0,0,1.39-1.69,88.57,88.57,0,0,1-6.75,6.24,11.63,11.63,0,0,1-2.19,2.39c.48-.4,1-.8,1.43-1.21"/><path class="cls-4" d="M164.78,176.67l-.78.66-.19.15Z"/><path class="cls-2" d="M97.83,135c-3.44,0-6.85.13-10.22.29.3,3,.63,6,1,8.91q4.68-.22,9.45-.27-.11-4.37-.2-8.93"/><path class="cls-2" d="M108.73,135c-3.45-.09-6.91-.13-10.34-.1q.08,4.56.15,8.93,4.77,0,9.56.1.34-4.36.63-8.93"/><path class="cls-9" d="M119.63,135.56c-3.43-.23-6.88-.4-10.33-.5q-.31,4.56-.68,8.92c3.19.1,6.38.25,9.55.46.51-2.89,1-5.86,1.46-8.88"/><path class="cls-2" d="M130.37,136.51c-3.35-.37-6.75-.68-10.18-.91q-.7,4.53-1.5,8.88c3.16.22,6.3.5,9.4.84q1.22-4.31,2.28-8.81"/><path class="cls-4" d="M140.73,137.89c-1.62-.25-3.29-.5-5-.73s-3.2-.41-4.82-.59c-.73,3-1.5,5.94-2.32,8.8,1.49.17,3,.36,4.44.55s3.12.44,4.61.68c1.09-2.83,2.11-5.74,3.08-8.71"/><path class="cls-8" d="M150.08,139.64c-2.77-.6-5.73-1.16-8.84-1.66-1,3-2,5.87-3.11,8.7,2.87.46,5.6,1,8.17,1.53,1.33-2.78,2.6-5.64,3.78-8.57"/><path class="cls-9" d="M158.3,141.69q-3.62-1-7.76-1.95-1.8,4.38-3.82,8.56,3.83.84,7.17,1.8,2.33-4.09,4.41-8.41"/><path class="cls-7" d="M165.32,144c-2-.76-4.24-1.5-6.63-2.19-1.39,2.87-2.88,5.68-4.44,8.4q3.31,1,6.12,2,2.63-4,4.95-8.25"/><path class="cls-4" d="M171.1,146.53a57.83,57.83,0,0,0-5.45-2.41q-2.34,4.23-5,8.23a52.84,52.84,0,0,1,5,2.23q2.85-3.9,5.39-8.05"/><path class="cls-8" d="M175.58,149.24a33.56,33.56,0,0,0-4.22-2.58c-1.69,2.76-3.5,5.45-5.41,8a30.64,30.64,0,0,1,3.9,2.38q3-3.78,5.73-7.84"/><path class="cls-9" d="M178.73,152.1a17.44,17.44,0,0,0-2.95-2.71q-2.7,4-5.75,7.83a15.52,15.52,0,0,1,2.72,2.5q3.17-3.67,6-7.62"/><path class="cls-9" d="M180.48,155.05a9.22,9.22,0,0,0-1.63-2.8q-2.81,3.93-6,7.61a8.43,8.43,0,0,1,1.5,2.59q3.23-3.55,6.11-7.4"/><path class="cls-6" d="M180.78,158.07a6.34,6.34,0,0,0-.25-2.86q-2.88,3.82-6.11,7.39a5.93,5.93,0,0,1,.24,2.64q3.24-3.44,6.12-7.17"/><path class="cls-11" d="M179.6,161.11a7.76,7.76,0,0,0,1.16-2.88q-2.88,3.72-6.13,7.15a7,7,0,0,1-1.07,2.66q3.19-3.31,6-6.93"/><path class="cls-3" d="M179,161.94c.18-.22.34-.45.5-.68q-2.85,3.62-6,6.93a11.31,11.31,0,0,1-1.34,1.63c2.1-2.33,4.92-5.43,6.88-7.88"/><path class="cls-4" d="M97.64,125.11q-5.52.06-11,.31c.27,3.15.55,6.24.86,9.28,3.39-.15,6.82-.25,10.26-.29-.06-3-.12-6.15-.17-9.3"/><path class="cls-2" d="M109.32,125.21c-3.7-.1-7.4-.14-11.08-.1q.06,4.72.14,9.3c3.45,0,6.92,0,10.39.1q.3-4.57.55-9.3"/><path class="cls-8" d="M121,125.76c-3.67-.24-7.37-.42-11.07-.53q-.27,4.72-.58,9.29c3.47.11,6.93.27,10.37.5.46-3,.88-6.12,1.28-9.26"/><path class="cls-2" d="M132.49,126.78c-3.6-.4-7.24-.72-10.9-1-.41,3.14-.84,6.23-1.31,9.26,3.44.24,6.85.54,10.22.92q1.06-4.51,2-9.2"/><path class="cls-2" d="M143.57,128.27q-2.59-.42-5.34-.79c-1.71-.23-3.42-.44-5.16-.63-.62,3.11-1.3,6.18-2,9.19,1.62.18,3.24.38,4.83.6s3.39.47,5,.73c.95-3,1.85-6,2.67-9.1"/><path class="cls-8" d="M153.59,130.13c-3-.64-6.13-1.24-9.47-1.77-.83,3.08-1.74,6.12-2.71,9.09q4.69.77,8.88,1.67,1.77-4.4,3.3-9"/><path class="cls-4" d="M162.39,132.32c-2.58-.73-5.36-1.43-8.31-2.08q-1.54,4.57-3.33,9,4.16.92,7.79,2,2.06-4.34,3.85-8.86"/><path class="cls-4" d="M169.9,134.8c-2.16-.82-4.53-1.61-7.09-2.35q-1.8,4.52-3.88,8.84,3.62,1.05,6.66,2.21c1.54-2.83,3-5.74,4.31-8.7"/><path class="cls-4" d="M176.09,137.51a62.45,62.45,0,0,0-5.83-2.58q-2,4.45-4.34,8.69a58.53,58.53,0,0,1,5.47,2.42q2.52-4.15,4.7-8.53"/><path class="cls-2" d="M180.89,140.42a33.94,33.94,0,0,0-4.52-2.76c-1.45,2.91-3,5.75-4.71,8.52a32.73,32.73,0,0,1,4.24,2.59q2.67-4.07,5-8.35"/><path class="cls-9" d="M184.26,143.48a18.79,18.79,0,0,0-3.16-2.91c-1.54,2.86-3.22,5.64-5,8.34a18,18,0,0,1,3,2.72c1.85-2.63,3.59-5.36,5.2-8.15"/><path class="cls-2" d="M186.13,146.64a9.77,9.77,0,0,0-1.74-3q-2.41,4.19-5.21,8.15a9.14,9.14,0,0,1,1.63,2.81q2.85-3.85,5.32-8"/><path class="cls-9" d="M186.46,149.87a6.64,6.64,0,0,0-.27-3.06q-2.48,4.09-5.32,7.95a6.38,6.38,0,0,1,.25,2.87,93.59,93.59,0,0,0,5.34-7.76"/><path class="cls-2" d="M184.66,154l.6-.94a8.25,8.25,0,0,0,1.18-3c-1.65,2.67-3.44,5.26-5.34,7.75a7.67,7.67,0,0,1-1.17,2.89q2.52-3.24,4.73-6.72"/><path class="cls-2" d="M183.65,155.52c-1.21,1.82-2.49,3.6-3.82,5.32-.14.21-.29.41-.45.62Z"/><path class="cls-2" d="M97.48,115c-3.89,0-7.75.15-11.56.33q.33,4.86.73,9.58c3.62-.16,7.29-.27,11-.31-.06-3.15-.11-6.36-.15-9.6"/><path class="cls-2" d="M109.81,115.06c-3.91-.11-7.82-.14-11.7-.11q.06,4.86.12,9.6c3.69,0,7.41,0,11.12.1.16-3.15.32-6.35.46-9.59"/><path class="cls-2" d="M122.12,115.64c-3.87-.26-7.77-.45-11.67-.56-.15,3.24-.32,6.44-.49,9.59q5.57.17,11.1.54c.38-3.15.74-6.34,1.06-9.57"/><path class="cls-8" d="M134.27,116.72q-5.7-.63-11.51-1-.49,4.83-1.1,9.56c3.68.25,7.33.58,10.93,1q.91-4.7,1.68-9.51"/><path class="cls-4" d="M146,118.28q-2.75-.44-5.64-.82c-1.8-.24-3.62-.47-5.44-.68q-.78,4.83-1.7,9.51c1.73.2,3.46.41,5.17.64s3.62.51,5.36.79q1.23-4.65,2.25-9.44"/><path class="cls-9" d="M156.55,120.26c-3.14-.68-6.48-1.31-10-1.88q-1,4.78-2.28,9.43c3.35.54,6.52,1.14,9.5,1.78q1.51-4.59,2.78-9.33"/><path class="cls-2" d="M165.83,122.57c-2.72-.78-5.65-1.52-8.77-2.2q-1.27,4.74-2.8,9.33c3,.65,5.75,1.35,8.34,2.09q1.76-4.53,3.23-9.22"/><path class="cls-4" d="M173.77,125.18q-3.44-1.31-7.49-2.48c-1,3.12-2.08,6.2-3.26,9.21q3.85,1.13,7.12,2.36,2-4.46,3.63-9.09"/><path class="cls-7" d="M180.3,128a66.06,66.06,0,0,0-6.16-2.72q-1.65,4.63-3.65,9.09a62,62,0,0,1,5.86,2.58q2.15-4.38,4-9"/><path class="cls-8" d="M185.37,131.11a37.09,37.09,0,0,0-4.77-2.91q-1.8,4.56-4,8.94a36,36,0,0,1,4.54,2.77c1.52-2.87,2.93-5.8,4.2-8.8"/><path class="cls-4" d="M188.92,134.34a19.63,19.63,0,0,0-3.33-3.06q-1.91,4.49-4.21,8.79a18.79,18.79,0,0,1,3.16,2.91q2.4-4.22,4.38-8.64"/><path class="cls-2" d="M190.9,137.68a10.43,10.43,0,0,0-1.83-3.17q-2,4.43-4.39,8.63a9.93,9.93,0,0,1,1.74,3,95,95,0,0,0,4.48-8.47"/><path class="cls-7" d="M191.25,141.09a7.26,7.26,0,0,0-.29-3.23c-1.35,2.89-2.85,5.72-4.48,8.46a6.71,6.71,0,0,1,.27,3.07,90.88,90.88,0,0,0,4.5-8.3"/><path class="cls-6" d="M188.23,147.91l2.29-4.47a8,8,0,0,0,.7-2.17q-2,4.26-4.49,8.29a8.36,8.36,0,0,1-1.15,2.94Z"/><path class="cls-7" d="M97.34,104.55c-4,0-8.07.16-12,.34.17,3.31.37,6.58.58,9.82,3.83-.18,7.7-.29,11.59-.33q-.07-4.86-.13-9.83"/><path class="cls-4" d="M110.19,104.66q-6.1-.16-12.19-.11c0,3.3.07,6.58.1,9.83,3.9,0,7.82,0,11.73.11q.21-4.86.36-9.83"/><path class="cls-8" d="M123,105.27c-4-.27-8.1-.47-12.17-.59-.11,3.31-.24,6.58-.39,9.83q5.88.17,11.71.56.48-4.84.85-9.8"/><path class="cls-9" d="M135.69,106.39c-3.95-.44-8-.79-12-1.07q-.39,4.94-.88,9.8,5.82.39,11.53,1c.5-3.22,1-6.48,1.34-9.76"/><path class="cls-4" d="M147.89,108q-2.87-.47-5.88-.87-2.82-.37-5.67-.7c-.4,3.29-.86,6.54-1.36,9.76q2.75.32,5.45.67c1.94.26,3.82.54,5.66.83.67-3.19,1.27-6.43,1.8-9.69"/><path class="cls-8" d="M158.91,110.08q-4.91-1.06-10.42-2-.8,4.91-1.82,9.7c3.53.57,6.88,1.2,10,1.88q1.26-4.76,2.22-9.62"/><path class="cls-9" d="M168.59,112.49c-2.84-.81-5.89-1.58-9.14-2.29-.66,3.24-1.41,6.45-2.24,9.61q4.69,1,8.79,2.21,1.45-4.69,2.59-9.53"/><path class="cls-8" d="M176.86,115.21c-2.39-.9-5-1.77-7.81-2.59q-1.14,4.83-2.6,9.53c2.71.78,5.21,1.62,7.51,2.49q1.64-4.65,2.9-9.43"/><path class="cls-7" d="M183.67,118.2a66.69,66.69,0,0,0-6.42-2.84q-1.27,4.78-2.91,9.42a63.7,63.7,0,0,1,6.17,2.73q1.77-4.58,3.16-9.31"/><path class="cls-7" d="M189,121.4a38.14,38.14,0,0,0-5-3q-1.38,4.73-3.17,9.3a37.69,37.69,0,0,1,4.78,2.92c1.26-3,2.38-6.07,3.36-9.18"/><path class="cls-8" d="M192.66,124.76a21.32,21.32,0,0,0-3.47-3.19q-1.49,4.67-3.37,9.18a20.14,20.14,0,0,1,3.34,3.07q2-4.44,3.5-9.06"/><path class="cls-7" d="M194.72,128.24a10.68,10.68,0,0,0-1.91-3.3q-1.55,4.62-3.51,9.05a10.63,10.63,0,0,1,1.84,3.18,94.46,94.46,0,0,0,3.58-8.93"/><path class="cls-10" d="M195.08,131.8a7.3,7.3,0,0,0-.3-3.37,95.37,95.37,0,0,1-3.58,8.92,7.29,7.29,0,0,1,.29,3.24,93.56,93.56,0,0,0,3.59-8.79"/><path class="cls-7" d="M194.71,133.3a7.12,7.12,0,0,0,.34-1.32,88.47,88.47,0,0,1-3.59,8.79,7.92,7.92,0,0,1-.68,2.12c1.22-2.86,2.88-6.66,3.93-9.59"/><path class="cls-10" d="M97.24,94q-6.26.06-12.41.35c.12,3.34.27,6.67.44,10q6-.27,12.07-.34-.06-5-.1-10"/><path class="cls-3" d="M110.47,94.1q-6.28-.16-12.55-.12,0,5,.08,10c4,0,8.13,0,12.21.11.11-3.3.19-6.63.26-10"/><path class="cls-8" d="M123.7,94.73c-4.16-.28-8.35-.48-12.54-.61-.07,3.35-.17,6.68-.28,10q6.12.18,12.2.59.36-4.95.62-10"/><path class="cls-4" d="M136.73,95.88c-4.07-.45-8.2-.82-12.35-1.11-.18,3.34-.39,6.67-.64,10,4,.28,8.06.63,12,1.07q.57-4.94,1-9.93"/><path class="cls-7" d="M149.3,97.56c-2-.31-4-.61-6.06-.88s-3.88-.5-5.84-.73c-.27,3.33-.61,6.65-1,9.93q2.86.33,5.69.7c2,.28,4,.56,5.89.87q.78-4.9,1.32-9.89"/><path class="cls-2" d="M160.65,99.68q-5.06-1.09-10.73-2-.55,5-1.33,9.89,5.5.89,10.44,2c.63-3.25,1.18-6.53,1.62-9.83"/><path class="cls-2" d="M170.61,102.16q-4.38-1.25-9.41-2.36c-.45,3.3-1,6.58-1.64,9.82,3.26.72,6.32,1.49,9.16,2.31.74-3.23,1.38-6.48,1.89-9.77"/><path class="cls-4" d="M179.13,105c-2.45-.93-5.14-1.83-8-2.67-.52,3.28-1.16,6.54-1.91,9.76,2.83.82,5.44,1.69,7.83,2.59q1.25-4.79,2.12-9.68"/><path class="cls-4" d="M186.15,108a68.2,68.2,0,0,0-6.61-2.92q-.89,4.89-2.14,9.68a66.93,66.93,0,0,1,6.43,2.84q1.36-4.74,2.32-9.6"/><path class="cls-2" d="M191.59,111.33a40.48,40.48,0,0,0-5.12-3.12q-1,4.86-2.33,9.59a38.45,38.45,0,0,1,5,3c1-3.13,1.79-6.3,2.46-9.52"/><path class="cls-8" d="M195.4,114.8a20.93,20.93,0,0,0-3.57-3.29c-.68,3.21-1.5,6.39-2.47,9.51a20.61,20.61,0,0,1,3.48,3.2c1-3.09,1.86-6.23,2.56-9.42"/><path class="cls-8" d="M197.53,118.39a11.39,11.39,0,0,0-2-3.41q-1.06,4.78-2.57,9.42a10.61,10.61,0,0,1,1.91,3.31,95.3,95.3,0,0,0,2.63-9.32"/><path class="cls-10" d="M197.9,122.05a7.64,7.64,0,0,0-.31-3.48c-.72,3.17-1.6,6.27-2.62,9.32a7.49,7.49,0,0,1,.3,3.38,92.63,92.63,0,0,0,2.63-9.22"/><path class="cls-5" d="M197.78,122.71c0-.16.07-.31.09-.47a91.68,91.68,0,0,1-2.63,9.21,7.53,7.53,0,0,1-.33,1.28c.9-3,2.15-7,2.87-10"/><path class="cls-4" d="M97.17,83.33q-6.37.08-12.63.36c.06,3.36.16,6.71.28,10.06,4.09-.19,8.24-.31,12.41-.35,0-3.35,0-6.71-.06-10.07"/><path class="cls-6" d="M110.64,83.45c-4.27-.12-8.54-.16-12.78-.13,0,3.37,0,6.72.06,10.07,4.17,0,8.37,0,12.57.12.07-3.34.12-6.7.15-10.06"/><path class="cls-4" d="M124.1,84.08q-6.34-.42-12.76-.61c0,3.36-.09,6.72-.16,10.06q6.28.19,12.55.61c.16-3.34.29-6.7.37-10.06"/><path class="cls-9" d="M137.37,85.26c-4.14-.46-8.34-.84-12.57-1.13q-.14,5-.39,10.05,6.24.43,12.37,1.11c.25-3.33.45-6.68.59-10"/><path class="cls-2" d="M150.16,87q-3-.48-6.17-.9c-2-.27-4-.51-5.94-.74-.14,3.35-.34,6.7-.61,10q3,.35,5.85.73c2.08.28,4.1.57,6.07.89q.52-5,.8-10"/><path class="cls-2" d="M161.72,89.12q-5.15-1.11-10.93-2.05-.27,5-.81,10,5.69.92,10.75,2,.65-5,1-10"/><path class="cls-7" d="M171.86,91.65c-3-.85-6.17-1.66-9.58-2.4-.23,3.33-.57,6.66-1,10,3.35.74,6.5,1.53,9.43,2.37.5-3.28.89-6.6,1.15-9.93"/><path class="cls-2" d="M180.54,94.51c-2.5-1-5.24-1.86-8.19-2.72q-.4,5-1.17,9.93,4.37,1.27,8.06,2.67c.56-3.27,1-6.56,1.3-9.88"/><path class="cls-7" d="M187.68,97.64a69.56,69.56,0,0,0-6.73-3c-.31,3.32-.74,6.62-1.31,9.88a70.91,70.91,0,0,1,6.62,2.93c.61-3.25,1.09-6.53,1.42-9.83"/><path class="cls-4" d="M193.22,101A42.54,42.54,0,0,0,188,97.8q-.5,5-1.42,9.83a41.09,41.09,0,0,1,5.13,3.13c.65-3.22,1.16-6.48,1.51-9.77"/><path class="cls-8" d="M197.1,104.52a21.36,21.36,0,0,0-3.64-3.35c-.35,3.29-.86,6.55-1.51,9.77a22.29,22.29,0,0,1,3.58,3.29,97.71,97.71,0,0,0,1.57-9.71"/><path class="cls-2" d="M199.26,108.17a11.34,11.34,0,0,0-2-3.47q-.56,4.92-1.58,9.72a11,11,0,0,1,2,3.41,94,94,0,0,0,1.61-9.66"/><path class="cls-10" d="M199.33,114.37l.34-2.69a7.85,7.85,0,0,0-.34-3.32,92.92,92.92,0,0,1-1.61,9.65,7.79,7.79,0,0,1,.31,3.48c.52-2.34.95-4.72,1.3-7.12"/><path class="cls-3" d="M198.93,116.89v0c-.27,1.62-.59,3.23-.94,4.83,0,.14-.05.29-.09.43Z"/><path class="cls-9" d="M97.13,72.66q-6.41.06-12.71.36,0,5,.11,10.07c4.17-.19,8.39-.31,12.63-.35,0-3.36,0-6.73,0-10.08"/><path class="cls-4" d="M110.69,72.77q-6.45-.17-12.87-.12,0,5,0,10.08,6.36,0,12.79.12,0-5,0-10.08"/><path class="cls-2" d="M124.23,73.42c-4.26-.29-8.55-.5-12.84-.62,0,3.35,0,6.71,0,10.07,4.26.13,8.53.34,12.77.62.08-3.36.11-6.72.11-10.07"/><path class="cls-2" d="M137.58,74.6q-6.26-.69-12.65-1.14,0,5-.12,10.08c4.23.29,8.44.67,12.58,1.12.13-3.35.19-6.71.19-10.06"/><path class="cls-2" d="M150.45,76.32q-3-.48-6.2-.91c-2-.26-4-.51-6-.74q0,5-.2,10.07c2,.23,4,.47,6,.74s4.17.58,6.17.9q.27-5,.26-10.06"/><path class="cls-4" d="M162.08,78.49q-5.18-1.12-11-2.07,0,5-.26,10.06,5.78.94,10.93,2.06c.21-3.34.32-6.7.32-10.05"/><path class="cls-2" d="M172.29,81q-4.48-1.29-9.64-2.42c0,3.35-.11,6.71-.33,10q5.12,1.13,9.59,2.41c.25-3.34.38-6.68.38-10"/><path class="cls-4" d="M181,83.9q-3.78-1.43-8.24-2.73,0,5-.38,10c2.95.86,5.69,1.76,8.19,2.71.28-3.32.43-6.66.43-10"/><path class="cls-9" d="M188.2,87.05a71.83,71.83,0,0,0-6.77-3c0,3.35-.15,6.7-.43,10a69.61,69.61,0,0,1,6.73,3q.47-5,.47-10"/><path class="cls-2" d="M193.78,90.43a40.42,40.42,0,0,0-5.25-3.21q0,5-.47,10a41.34,41.34,0,0,1,5.22,3.19q.5-4.95.5-10"/><path class="cls-10" d="M197.69,94A21.69,21.69,0,0,0,194,90.61q0,5-.5,10a21.36,21.36,0,0,1,3.64,3.35,96.82,96.82,0,0,0,.53-10"/><path class="cls-6" d="M199.86,97.65a11.3,11.3,0,0,0-2-3.49,96.53,96.53,0,0,1-.52,10,11.59,11.59,0,0,1,2,3.47,93.43,93.43,0,0,0,.53-9.94"/><path class="cls-11" d="M200.32,100.32a8.18,8.18,0,0,0-.39-2.48,96,96,0,0,1-.54,9.94,7.83,7.83,0,0,1,.35,3.28c.22-3.22.56-7.51.58-10.74"/><path class="cls-9" d="M97.13,62.3c-4.25.05-8.47.16-12.64.36q-.08,4.74-.07,9.77c4.19-.2,8.44-.32,12.71-.36q0-5,0-9.77"/><path class="cls-4" d="M110.61,62.42q-6.4-.18-12.79-.12v9.76q6.42,0,12.86.12c0-3.34,0-6.6-.07-9.76"/><path class="cls-10" d="M124.08,63.05q-6.36-.42-12.77-.61c0,3.16.07,6.42.08,9.76,4.29.13,8.58.34,12.84.62q0-5-.15-9.77"/><path class="cls-7" d="M137.35,64.23q-6.21-.69-12.58-1.13.15,4.74.16,9.77,6.39.45,12.65,1.13,0-5-.23-9.77"/><path class="cls-2" d="M150.16,65.94q-3-.48-6.18-.9c-2-.27-3.95-.51-5.95-.74.15,3.17.22,6.43.24,9.78,2,.23,4,.47,6,.74s4.19.59,6.2.91q0-5-.29-9.79"/><path class="cls-7" d="M161.72,68.1Q156.57,67,150.79,66q.28,4.77.3,9.79,5.81.94,11,2.07,0-5-.36-9.8"/><path class="cls-7" d="M171.87,70.63q-4.47-1.29-9.59-2.41.34,4.77.37,9.8,5.15,1.13,9.64,2.42,0-5-.42-9.81"/><path class="cls-11" d="M180.55,73.48c-2.5-1-5.24-1.85-8.19-2.71.26,3.19.41,6.46.42,9.81q4.46,1.31,8.24,2.73c0-3.35-.17-6.62-.47-9.83"/><path class="cls-7" d="M187.69,76.61a69.88,69.88,0,0,0-6.73-3q.45,4.8.47,9.83a71.83,71.83,0,0,1,6.77,3c0-3.35-.19-6.63-.51-9.85"/><path class="cls-8" d="M193.24,80A40.64,40.64,0,0,0,188,76.78c.32,3.22.5,6.5.51,9.85a40.42,40.42,0,0,1,5.25,3.21q0-5-.54-9.87"/><path class="cls-9" d="M197.12,83.5a21,21,0,0,0-3.64-3.35A96.81,96.81,0,0,1,194,90a21.69,21.69,0,0,1,3.67,3.37,94.67,94.67,0,0,0-.57-9.89"/><path class="cls-3" d="M199.29,87.15a11.55,11.55,0,0,0-2-3.46,91.84,91.84,0,0,1,.56,9.88,11.3,11.3,0,0,1,2,3.49,92.69,92.69,0,0,0-.57-9.91"/><path class="cls-2" d="M199.7,88.94a7.93,7.93,0,0,0-.35-1.59,92.34,92.34,0,0,1,.58,9.9,8.22,8.22,0,0,1,.39,2.43c-.14-3.23-.28-7.53-.62-10.74"/><path class="cls-11" d="M97.16,52.58q-6.27.08-12.42.35-.17,4.44-.24,9.17,6.25-.29,12.62-.36,0-4.73,0-9.16"/><path class="cls-10" d="M110.41,52.7c-4.2-.12-8.4-.16-12.57-.12q0,4.43,0,9.16c4.24,0,8.51,0,12.78.12,0-3.15-.11-6.21-.19-9.16"/><path class="cls-3" d="M123.65,53.32q-6.24-.42-12.55-.6c.08,3,.15,6,.2,9.16q6.4.18,12.76.61-.14-4.73-.41-9.17"/><path class="cls-8" d="M136.7,54.48q-6.12-.67-12.37-1.11c.18,3,.33,6,.43,9.17,4.23.29,8.43.67,12.57,1.13-.15-3.16-.36-6.23-.63-9.19"/><path class="cls-9" d="M149.28,56.16q-3-.46-6.06-.89-2.91-.39-5.85-.72c.27,3,.49,6,.64,9.19,2,.23,4,.47,6,.74s4.16.58,6.16.9c-.19-3.16-.48-6.24-.84-9.22"/><path class="cls-11" d="M160.65,58.28q-5.06-1.1-10.75-2c.37,3,.65,6.06.85,9.22q5.77.94,10.93,2.06c-.24-3.18-.59-6.26-1-9.26"/><path class="cls-5" d="M170.63,60.77q-4.4-1.26-9.43-2.37c.45,3,.8,6.08,1,9.26q5.12,1.13,9.59,2.4-.42-4.77-1.2-9.29"/><path class="cls-2" d="M179.16,63.57c-2.46-.93-5.15-1.82-8-2.66q.78,4.52,1.2,9.29c2.95.86,5.69,1.77,8.19,2.72-.31-3.2-.76-6.31-1.34-9.35"/><path class="cls-4" d="M186.18,66.65a68.7,68.7,0,0,0-6.62-2.92c.58,3,1,6.15,1.35,9.34a72.09,72.09,0,0,1,6.73,3q-.51-4.81-1.46-9.4"/><path class="cls-6" d="M191.63,70a39.93,39.93,0,0,0-5.13-3.13c.63,3.05,1.12,6.19,1.46,9.39a41.34,41.34,0,0,1,5.22,3.19A93.09,93.09,0,0,0,191.63,70"/><path class="cls-4" d="M195.45,73.42a21,21,0,0,0-3.58-3.29,93.09,93.09,0,0,1,1.55,9.45,21.75,21.75,0,0,1,3.64,3.35,91.57,91.57,0,0,0-1.61-9.51"/><path class="cls-9" d="M197.58,77a11.22,11.22,0,0,0-2-3.41,92.49,92.49,0,0,1,1.62,9.51,11.34,11.34,0,0,1,2,3.47A91,91,0,0,0,197.58,77"/><path class="cls-4" d="M198.69,82.09l-.86-4.19c-.05-.24-.12-.47-.19-.7a93.69,93.69,0,0,1,1.65,9.57,9.45,9.45,0,0,1,.34,1.54Z"/><path class="cls-3" d="M97.22,43.55c-4,.05-8.08.16-12.06.34q-.24,4.11-.4,8.52,6.13-.28,12.4-.35,0-4.41.06-8.51"/><path class="cls-7" d="M110.1,43.66c-4.08-.11-8.16-.15-12.21-.11q0,4.1,0,8.51,6.25-.06,12.56.12c-.09-3-.19-5.78-.3-8.52"/><path class="cls-10" d="M123,44.27q-6.06-.41-12.19-.59c.12,2.73.23,5.57.31,8.52,4.19.12,8.38.32,12.54.6-.18-2.94-.4-5.79-.66-8.53"/><path class="cls-5" d="M135.64,45.39q-5.94-.66-12-1.07c.26,2.74.49,5.58.67,8.53,4.16.29,8.28.65,12.35,1.11q-.41-4.44-1-8.57"/><path class="cls-6" d="M147.87,47c-1.91-.3-3.88-.59-5.89-.86s-3.78-.49-5.69-.71c.4,2.76.75,5.61,1,8.57q2.94.33,5.84.72,3.1.42,6.06.89-.56-4.45-1.35-8.61"/><path class="cls-9" d="M158.91,49.09q-4.92-1.06-10.44-2c.54,2.77,1,5.64,1.37,8.61q5.67.91,10.73,2c-.45-3-1-5.88-1.66-8.67"/><path class="cls-6" d="M168.61,51.51q-4.28-1.23-9.16-2.3,1,4.18,1.67,8.66,5,1.11,9.42,2.37c-.53-3-1.18-5.92-1.93-8.73"/><path class="cls-9" d="M176.9,54.23c-2.39-.9-5-1.77-7.83-2.59q1.14,4.23,1.94,8.74,4.37,1.26,8.05,2.66-.9-4.53-2.16-8.81"/><path class="cls-5" d="M183.72,57.22a66.93,66.93,0,0,0-6.43-2.84q1.28,4.27,2.17,8.82a67.13,67.13,0,0,1,6.61,2.92q-1-4.58-2.35-8.9"/><path class="cls-3" d="M189,60.43a39.58,39.58,0,0,0-5-3c.92,2.89,1.71,5.85,2.36,8.9a39.1,39.1,0,0,1,5.12,3.13,89.9,89.9,0,0,0-2.49-9"/><path class="cls-10" d="M192.73,63.8a20.61,20.61,0,0,0-3.48-3.2,90.12,90.12,0,0,1,2.5,9,21.41,21.41,0,0,1,3.58,3.28,93.57,93.57,0,0,0-2.6-9.07"/><path class="cls-9" d="M194.84,67.42l-.05-.14a10.81,10.81,0,0,0-1.92-3.3,90.28,90.28,0,0,1,2.61,9.08,11.34,11.34,0,0,1,2,3.4,91.85,91.85,0,0,0-2.61-9"/><path class="cls-3" d="M195.57,69.62c.74,2.3,1.39,4.65,1.94,7,.07.21.13.43.18.64-.63-2.3-1.39-5.4-2.12-7.67"/><path class="cls-11" d="M97.32,35.25c-3.89,0-7.76.15-11.58.33-.21,2.5-.4,5.11-.55,7.83q6-.27,12-.34,0-4.07.09-7.82"/><path class="cls-3" d="M109.68,35.36c-3.91-.11-7.83-.15-11.72-.11q0,3.73-.07,7.82,6.08-.06,12.19.11-.18-4.08-.4-7.82"/><path class="cls-10" d="M122,35.94c-3.88-.26-7.79-.45-11.7-.56q.23,3.73.42,7.82,6.1.18,12.17.59c-.26-2.73-.56-5.34-.89-7.85"/><path class="cls-9" d="M134.21,37c-3.8-.42-7.66-.77-11.54-1,.34,2.51.65,5.13.91,7.85q6.06.42,12,1.08Q135,40.8,134.21,37"/><path class="cls-3" d="M145.94,38.59c-1.83-.29-3.72-.57-5.65-.83s-3.63-.47-5.46-.67q.78,3.78,1.39,7.89,2.86.33,5.67.7,3,.41,5.89.86c-.54-2.75-1.15-5.41-1.84-7.95"/><path class="cls-2" d="M156.55,40.57c-3.15-.68-6.5-1.31-10-1.89q1,3.82,1.85,8,5.51.88,10.42,2-1-4.17-2.25-8"/><path class="cls-9" d="M165.86,42.89c-2.73-.79-5.67-1.52-8.8-2.21q1.27,3.85,2.27,8c3.25.72,6.31,1.49,9.15,2.3q-1.15-4.21-2.62-8.12"/><path class="cls-11" d="M173.81,45.51c-2.29-.87-4.8-1.71-7.51-2.49,1,2.6,1.87,5.32,2.64,8.12,2.81.82,5.42,1.69,7.81,2.59a86.65,86.65,0,0,0-2.94-8.22"/><path class="cls-4" d="M180.36,48.37a63.75,63.75,0,0,0-6.17-2.72q1.65,4,2.95,8.23a67.81,67.81,0,0,1,6.42,2.84,86.82,86.82,0,0,0-3.2-8.35"/><path class="cls-2" d="M185.45,51.45a37.85,37.85,0,0,0-4.79-2.92,86.87,86.87,0,0,1,3.21,8.35,39.27,39.27,0,0,1,5,3,89.33,89.33,0,0,0-3.39-8.46"/><path class="cls-8" d="M189,54.69a20.14,20.14,0,0,0-3.34-3.07,85,85,0,0,1,3.4,8.47,20.58,20.58,0,0,1,3.48,3.19A90,90,0,0,0,189,54.69"/><path class="cls-6" d="M194.38,66.11c-1.11-2.71-2.53-6.34-3.76-9a11.75,11.75,0,0,0-1.47-2.26,86.67,86.67,0,0,1,3.54,8.6,11,11,0,0,1,1.9,3.24Z"/><path class="cls-6" d="M97.45,27.72c-3.69,0-7.36.14-11,.31-.25,2.25-.49,4.62-.7,7.11q5.73-.27,11.56-.33c0-2.48.07-4.85.12-7.09"/><path class="cls-10" d="M109.17,27.82c-3.71-.1-7.43-.14-11.12-.11q0,3.38-.09,7.1,5.83-.06,11.7.11c-.15-2.49-.32-4.85-.49-7.1"/><path class="cls-9" d="M120.88,28.37c-3.69-.25-7.39-.42-11.1-.53q.28,3.36.52,7.1,5.85.16,11.68.56-.51-3.74-1.1-7.13"/><path class="cls-11" d="M132.41,29.39c-3.6-.4-7.25-.72-10.93-1q.61,3.39,1.13,7.13,5.81.41,11.51,1c-.52-2.5-1.09-4.9-1.71-7.18"/><path class="cls-4" d="M143.54,30.89c-1.74-.28-3.53-.55-5.36-.79s-3.44-.44-5.18-.64q.94,3.42,1.74,7.18c1.82.21,3.64.43,5.44.67s3.81.54,5.64.83q-1-3.8-2.28-7.25"/><path class="cls-9" d="M153.59,32.76c-3-.65-6.15-1.24-9.5-1.79q1.26,3.47,2.31,7.26c3.52.57,6.86,1.2,10,1.88q-1.28-3.84-2.81-7.35"/><path class="cls-7" d="M162.42,35c-2.59-.75-5.38-1.45-8.34-2.1q1.54,3.53,2.83,7.36c3.12.69,6.05,1.43,8.77,2.21q-1.49-3.9-3.26-7.47"/><path class="cls-8" d="M170,37.44c-2.18-.83-4.55-1.61-7.12-2.36,1.19,2.38,2.29,4.88,3.29,7.47q4.05,1.19,7.49,2.49a82,82,0,0,0-3.66-7.6"/><path class="cls-7" d="M176.17,40.16a62,62,0,0,0-5.86-2.59A81,81,0,0,1,174,45.18a62.45,62.45,0,0,1,6.16,2.72,82.87,82.87,0,0,0-4-7.74"/><path class="cls-9" d="M181,43.08a36,36,0,0,0-4.54-2.78,83.26,83.26,0,0,1,4,7.75A37.53,37.53,0,0,1,185.22,51,83.83,83.83,0,0,0,181,43.08"/><path class="cls-11" d="M184.36,46.14a18.79,18.79,0,0,0-3.16-2.91,85.34,85.34,0,0,1,4.24,7.9,20.14,20.14,0,0,1,3.34,3.07,87.19,87.19,0,0,0-4.42-8.06"/><path class="cls-7" d="M187.56,51.23l-2.18-3.71a12,12,0,0,0-.88-1.21,88.26,88.26,0,0,1,4.42,8.06,11.29,11.29,0,0,1,1.43,2.2Z"/><path class="cls-6" d="M97.6,21c-3.44,0-6.87.13-10.26.29-.3,2-.57,4.11-.83,6.34,3.61-.16,7.27-.27,10.95-.31Q97.52,24,97.6,21"/><path class="cls-3" d="M108.56,21.09c-3.47-.09-6.94-.12-10.39-.1q-.06,3-.11,6.33c3.68,0,7.38,0,11.08.1-.18-2.23-.38-4.34-.58-6.33"/><path class="cls-8" d="M119.5,21.61c-3.44-.23-6.91-.4-10.37-.5q.33,3,.61,6.33c3.7.11,7.4.29,11.06.54q-.6-3.37-1.3-6.37"/><path class="cls-3" d="M130.29,22.56q-5.05-.55-10.22-.91.71,3,1.34,6.37c3.66.25,7.3.58,10.89,1-.62-2.26-1.29-4.41-2-6.43"/><path class="cls-2" d="M140.69,24c-1.63-.26-3.3-.51-5-.74s-3.21-.41-4.83-.59c.73,2,1.42,4.16,2,6.43,1.73.19,3.45.41,5.16.64s3.61.5,5.34.78c-.83-2.29-1.74-4.47-2.7-6.52"/><path class="cls-9" d="M150.08,25.71c-2.79-.61-5.75-1.16-8.88-1.67q1.47,3.08,2.74,6.53,5,.81,9.47,1.78a73.42,73.42,0,0,0-3.33-6.64"/><path class="cls-9" d="M158.33,27.76c-2.42-.69-5-1.35-7.79-2a73.54,73.54,0,0,1,3.36,6.64q4.42,1,8.3,2.09a74.17,74.17,0,0,0-3.87-6.78"/><path class="cls-10" d="M165.38,30.08c-2-.77-4.25-1.51-6.66-2.2a73.1,73.1,0,0,1,3.91,6.78c2.56.74,4.92,1.53,7.09,2.35a75.66,75.66,0,0,0-4.34-6.93"/><path class="cls-7" d="M171.18,32.63a53.72,53.72,0,0,0-5.47-2.42,76.07,76.07,0,0,1,4.37,6.94,60,60,0,0,1,5.83,2.57,77.31,77.31,0,0,0-4.73-7.09"/><path class="cls-9" d="M175.69,35.35a33.88,33.88,0,0,0-4.24-2.59,79.12,79.12,0,0,1,4.74,7.11,33.94,33.94,0,0,1,4.52,2.76,82.34,82.34,0,0,0-5-7.28"/><path class="cls-3" d="M178.85,38.22a18,18,0,0,0-3-2.72,83.94,83.94,0,0,1,5,7.28,18.79,18.79,0,0,1,3.16,2.91,89.09,89.09,0,0,0-5.23-7.47"/><path class="cls-4" d="M179.13,38.57l-.16-.2a88.67,88.67,0,0,1,5.24,7.48,9.69,9.69,0,0,1,.84,1.16c-1.74-2.56-4-6-5.92-8.44"/><path class="cls-2" d="M97.79,15.13c-3.18,0-6.33.12-9.45.27q-.5,2.56-1,5.54,5.07-.24,10.22-.29.09-3,.18-5.52"/><path class="cls-7" d="M107.86,15.22c-3.19-.09-6.38-.12-9.55-.09,0,1.7-.1,3.55-.13,5.51,3.43,0,6.89,0,10.34.1-.21-2-.42-3.81-.66-5.52"/><path class="cls-11" d="M117.93,15.69q-4.75-.31-9.54-.46c.24,1.71.48,3.56.7,5.53,3.45.1,6.9.27,10.33.5-.47-2-1-3.84-1.49-5.57"/><path class="cls-5" d="M127.85,16.57c-3.1-.34-6.24-.62-9.4-.84.54,1.73,1,3.58,1.53,5.57,3.43.23,6.82.54,10.18.91q-1.09-3-2.31-5.64"/><path class="cls-2" d="M137.42,17.85c-1.5-.23-3-.46-4.61-.67s-3-.38-4.45-.55q1.24,2.63,2.35,5.64c1.62.18,3.22.38,4.81.59s3.38.48,5,.74q-1.47-3.06-3.1-5.75"/><path class="cls-5" d="M146.06,19.47q-3.85-.84-8.17-1.54A63.57,63.57,0,0,1,141,23.68c3.11.5,6.06,1.06,8.84,1.66a62.36,62.36,0,0,0-3.81-5.87"/><path class="cls-11" d="M153.65,21.35q-3.35-.95-7.17-1.79a63.47,63.47,0,0,1,3.85,5.88c2.76.6,5.35,1.26,7.76,1.95a69.15,69.15,0,0,0-4.44-6"/><path class="cls-6" d="M160.13,23.49q-2.81-1.06-6.12-2a69.4,69.4,0,0,1,4.47,6q3.59,1,6.63,2.2a70.84,70.84,0,0,0-5-6.21"/><path class="cls-5" d="M165.47,25.83a51.31,51.31,0,0,0-5-2.22,71,71,0,0,1,5,6.21,56.47,56.47,0,0,1,5.44,2.41,75.85,75.85,0,0,0-5.41-6.4"/><path class="cls-9" d="M169.61,28.34a30,30,0,0,0-3.9-2.39,78.1,78.1,0,0,1,5.44,6.42,33.11,33.11,0,0,1,4.22,2.57,82.46,82.46,0,0,0-5.76-6.6"/><path class="cls-5" d="M177,35.88c-1.53-1.7-3.52-4-5.12-5.66a18.19,18.19,0,0,0-2-1.75,84.66,84.66,0,0,1,5.77,6.62,17.35,17.35,0,0,1,2.94,2.71q-.76-1-1.56-1.92"/><path class="cls-7" d="M178.42,37.67l-.57-.7c.27.32.53.65.79,1l.12.14Z"/><path class="cls-3" d="M98,10.16c-2.86,0-5.71.11-8.52.24-.37,1.43-.73,3-1.07,4.7,3.1-.15,6.24-.24,9.4-.27.06-1.69.12-3.25.19-4.67"/><path class="cls-3" d="M107.09,10.24q-4.32-.12-8.63-.08c0,1.42-.1,3-.15,4.67,3.16,0,6.34,0,9.51.09-.23-1.7-.48-3.26-.73-4.68"/><path class="cls-8" d="M116.17,10.67c-2.85-.19-5.73-.33-8.61-.42q.41,2.14.78,4.68,4.77.15,9.5.46-.8-2.57-1.67-4.72"/><path class="cls-10" d="M125.13,11.46q-4.2-.46-8.49-.76.9,2.16,1.71,4.73c3.15.22,6.27.49,9.36.83a51.14,51.14,0,0,0-2.58-4.8"/><path class="cls-6" d="M133.76,12.62c-1.35-.22-2.74-.42-4.16-.61s-2.67-.35-4-.5a48.05,48.05,0,0,1,2.63,4.81c1.49.17,3,.35,4.43.55s3.09.43,4.58.67a50.37,50.37,0,0,0-3.46-4.92"/><path class="cls-10" d="M141.56,14.07q-3.48-.75-7.37-1.38a49.56,49.56,0,0,1,3.5,4.93q4.31.69,8.13,1.52a53.31,53.31,0,0,0-4.26-5.07"/><path class="cls-7" d="M148.41,15.78q-3-.87-6.47-1.63a55.3,55.3,0,0,1,4.3,5.08q3.8.84,7.13,1.79a61.85,61.85,0,0,0-5-5.24"/><path class="cls-10" d="M154.26,17.7q-2.53-1-5.53-1.83a61,61,0,0,1,5,5.26c2.2.63,4.23,1.31,6.09,2a67.87,67.87,0,0,0-5.56-5.44"/><path class="cls-2" d="M159.08,19.82a44.74,44.74,0,0,0-4.55-2,65.25,65.25,0,0,1,5.59,5.45,52.26,52.26,0,0,1,5,2.21,74.93,74.93,0,0,0-6-5.65"/><path class="cls-8" d="M162.82,22.08a28.2,28.2,0,0,0-3.52-2.15,73.79,73.79,0,0,1,6.07,5.67A29.23,29.23,0,0,1,169.25,28a81.28,81.28,0,0,0-6.43-5.89"/><path class="cls-8" d="M167.05,25.64l-3.49-3c-.18-.15-.38-.3-.58-.45a81.84,81.84,0,0,1,6.45,5.9,17,17,0,0,1,2,1.69Z"/><path class="cls-8" d="M98.22,6.13c-2.52,0-5,.1-7.51.21q-.6,1.7-1.17,3.81c2.79-.13,5.62-.21,8.47-.24.06-1.4.14-2.66.21-3.78"/><path class="cls-8" d="M106.24,6.2c-2.54-.07-5.08-.1-7.6-.07-.06,1.11-.12,2.38-.17,3.78,2.85,0,5.71,0,8.57.08-.26-1.41-.52-2.67-.8-3.79"/><path class="cls-8" d="M114.25,6.58c-2.52-.17-5.06-.29-7.6-.37.3,1.12.59,2.39.86,3.79,2.86.09,5.72.23,8.56.42a35.5,35.5,0,0,0-1.82-3.84"/><path class="cls-10" d="M122.14,7.27c-2.47-.27-5-.49-7.48-.66a37.24,37.24,0,0,1,1.88,3.84c2.83.2,5.65.45,8.43.76a34.71,34.71,0,0,0-2.83-3.94"/><path class="cls-10" d="M129.75,8.29c-1.2-.19-2.42-.36-3.67-.53s-2.35-.31-3.54-.44a34.42,34.42,0,0,1,2.88,3.93c1.34.16,2.67.32,4,.5s2.79.39,4.14.6a41.23,41.23,0,0,0-3.8-4.06"/><path class="cls-2" d="M136.62,9.57q-3.06-.66-6.5-1.22A39.45,39.45,0,0,1,134,12.42q3.87.63,7.33,1.38a47.29,47.29,0,0,0-4.68-4.23"/><path class="cls-11" d="M142.66,11.08Q140,10.32,137,9.65a45.4,45.4,0,0,1,4.72,4.23q3.44.75,6.43,1.61a56.4,56.4,0,0,0-5.44-4.41"/><path class="cls-5" d="M147.81,12.78c-1.48-.57-3.11-1.11-4.87-1.62a54.45,54.45,0,0,1,5.48,4.43q3,.86,5.5,1.82a62.88,62.88,0,0,0-6.11-4.63"/><path class="cls-8" d="M152.06,14.64a42.51,42.51,0,0,0-4-1.77,63.24,63.24,0,0,1,6.13,4.64,46.2,46.2,0,0,1,4.51,2,71.56,71.56,0,0,0-6.64-4.87"/><path class="cls-4" d="M159.74,19.67,154.36,16c-.64-.41-1.34-.81-2.11-1.21a74,74,0,0,1,6.67,4.88,27.18,27.18,0,0,1,3.5,2.13c-.88-.71-1.77-1.4-2.68-2.08"/><path class="cls-9" d="M160.56,20.28c.68.52,1.36,1,2,1.59l.49.38Z"/><path class="cls-3" d="M98.47,3.08c-2.15,0-4.3.08-6.41.18a20.9,20.9,0,0,0-1.27,2.88q3.69-.16,7.45-.21c.07-1.1.15-2,.23-2.85"/><path class="cls-6" d="M105.32,3.14c-2.17-.06-4.34-.08-6.49-.06q-.1,1.2-.18,2.85c2.5,0,5,0,7.54.07a27.87,27.87,0,0,0-.87-2.86"/><path class="cls-4" d="M112.16,3.46q-3.22-.22-6.48-.31A24.89,24.89,0,0,1,106.6,6c2.52.08,5,.2,7.53.37a19.76,19.76,0,0,0-2-2.92"/><path class="cls-10" d="M118.91,4.06q-3.16-.36-6.39-.58a20,20,0,0,1,2,2.93c2.5.17,5,.39,7.42.66a23.33,23.33,0,0,0-3-3"/><path class="cls-9" d="M125.41,4.93c-1-.16-2.06-.32-3.13-.46s-2-.26-3-.37a23.13,23.13,0,0,1,3.11,3c1.18.13,2.35.27,3.51.43s2.46.34,3.64.53a31.33,31.33,0,0,0-4.1-3.15"/><path class="cls-6" d="M131.28,6q-2.61-.57-5.55-1a31.92,31.92,0,0,1,4.16,3.16q3.41.55,6.44,1.21A40.74,40.74,0,0,0,131.28,6"/><path class="cls-8" d="M136.44,7.31c-1.51-.44-3.14-.85-4.87-1.23a42.91,42.91,0,0,1,5.1,3.34c2,.45,3.89.92,5.65,1.43a49,49,0,0,0-5.88-3.54"/><path class="cls-6" d="M140.85,8.76c-1.27-.48-2.66-1-4.16-1.38a50.39,50.39,0,0,1,5.92,3.55c1.74.5,3.35,1,4.83,1.6a59,59,0,0,0-6.59-3.77"/><path class="cls-8" d="M146.59,11.42l-3-1.5c-.78-.37-1.63-.73-2.54-1.08a61.06,61.06,0,0,1,6.62,3.78,39.45,39.45,0,0,1,4,1.76c-1.64-1.06-3.33-2-5.06-3"/><path class="cls-4" d="M153.43,15.36c-1.87-1.1-4.35-2.6-6.26-3.63,1.6.86,3.16,1.77,4.68,2.75.72.37,1.38.75,2,1.14Z"/><path class="cls-6" d="M98.75,1.05c-1.77,0-3.52.07-5.25.14a9.14,9.14,0,0,0-1.36,1.93q3.14-.15,6.35-.18c.08-.79.17-1.42.26-1.89"/><path class="cls-2" d="M104.35,1.1C102.57,1.05,100.8,1,99,1c-.06.48-.13,1.11-.19,1.89,2.13,0,4.28,0,6.43.06a10.11,10.11,0,0,0-.92-1.89"/><path class="cls-3" d="M109.94,1.36c-1.76-.12-3.53-.2-5.3-.26a10.15,10.15,0,0,1,1,1.91q3.22.09,6.42.31a10.86,10.86,0,0,0-2.1-2"/><path class="cls-6" d="M115.46,1.85c-1.72-.19-3.47-.35-5.23-.47a11.08,11.08,0,0,1,2.16,2c2.13.15,4.25.34,6.33.57a16.9,16.9,0,0,0-3.26-2.06"/><path class="cls-3" d="M120.78,2.56c-.83-.13-1.69-.26-2.57-.38s-1.64-.21-2.47-.3a17,17,0,0,1,3.32,2.06l3,.37c1.06.15,2.09.3,3.1.46a25.7,25.7,0,0,0-4.38-2.21"/><path class="cls-10" d="M125.58,3.46c-1.42-.31-2.94-.6-4.54-.86a27.06,27.06,0,0,1,4.44,2.22c1.93.31,3.77.66,5.5,1a37,37,0,0,0-5.4-2.39"/><path class="cls-5" d="M129.8,4.51c-1.24-.36-2.57-.69-4-1a37.49,37.49,0,0,1,5.44,2.4q2.56.57,4.82,1.22a47.83,47.83,0,0,0-6.28-2.62"/><path class="cls-6" d="M136,6.62c-1.65-.59-3.85-1.37-5.51-1.92L130,4.57a46.53,46.53,0,0,1,6.32,2.63c1.49.43,2.87.88,4.12,1.36Q138.25,7.51,136,6.62"/><path class="cls-7" d="M137.05,7l-.73-.29q2.2.87,4.33,1.89c.83.32,1.61.65,2.34,1-1.78-.78-4.14-1.87-5.94-2.58"/><path class="cls-8" d="M99,.08c-1.35,0-2.69.05-4,.11a3.61,3.61,0,0,0-1.44.92C95.29,1,97,1,98.76,1A2.83,2.83,0,0,1,99,.08"/><path class="cls-10" d="M103.32.12c-1.36,0-2.72,0-4.07,0a3.16,3.16,0,0,0-.2.88c1.74,0,3.49,0,5.24.05a2.32,2.32,0,0,0-1-.89"/><path class="cls-8" d="M107.6.32c-1.35-.09-2.7-.16-4.06-.2a2.55,2.55,0,0,1,1,.9c1.75.05,3.5.14,5.24.25A6.48,6.48,0,0,0,107.6.32"/><path class="cls-3" d="M111.82.69c-1.32-.14-2.66-.26-4-.36a6.62,6.62,0,0,1,2.28,1c1.74.12,3.46.28,5.16.47A13.56,13.56,0,0,0,111.82.69"/><path class="cls-9" d="M116.43,1.33l-1.6-.25L113.92,1,112,.72a13.53,13.53,0,0,1,3.51,1.07c.82.09,1.63.19,2.44.3s1.71.24,2.53.37a23.3,23.3,0,0,0-4.08-1.13"/><path class="cls-5" d="M122.73,2.59c-1.79-.39-4.18-.88-6-1.21a24.47,24.47,0,0,1,4,1.12c1.58.26,3.08.54,4.49.84-.84-.28-1.68-.53-2.53-.75"/><path class="cls-10" d="M129.31,4.35c-1.86-.53-4.36-1.21-6.25-1.68q1.23.31,2.43.72,2.1.47,3.93,1l-.11,0"/><path class="cls-8" d="M99.14,0c-1.07,0-2.51.06-3.58.1a2.22,2.22,0,0,0-.45.07c1.3-.06,2.61-.1,3.94-.11A.12.12,0,0,1,99.14,0"/><path class="cls-7" d="M102.94,0,99.39,0h0a.1.1,0,0,0-.07.06c1.32,0,2.65,0,4,0a1.23,1.23,0,0,0-.32-.07"/><path class="cls-5" d="M106.89.22,103.76.06l-.62,0a1.35,1.35,0,0,1,.34.06c1.33,0,2.66.11,4,.2a4.89,4.89,0,0,0-.57-.08"/><path class="cls-7" d="M111.19.61c-.84-.09-2-.21-2.82-.28L107.11.24a5.54,5.54,0,0,1,.57.07c1.32.09,2.64.21,3.93.35l-.42-.05"/><path class="cls-8" d="M113.52.89l-2.1-.26.4.06,1.86.22L114,1Z"/></g></g></svg>