<?xml version="1.0" encoding="utf-8"?>
<!-- Generator: Adobe Illustrator 25.2.3, SVG Export Plug-In . SVG Version: 6.00 Build 0)  -->
<svg version="1.1" id="Capa_1" xmlns="http://www.w3.org/2000/svg" xmlns:xlink="http://www.w3.org/1999/xlink" x="0px" y="0px"
	 viewBox="0 0 1080 1350" style="enable-background:new 0 0 1080 1350;" xml:space="preserve">
<style type="text/css">
	.st0{fill:#FFFFFF;}
</style>
<g>
	<path class="st0" d="M514,941.95c-8.11-3.28-16.82-5.55-24.2-10.02c-22.44-13.57-33.49-40.99-27.66-66.16
		c6.02-25.99,27.86-45.85,54.04-48.71c13.25-1.45,25.88,1.11,38.5,8.37c0-2.67,0-4.61,0-6.55c0-67.56,0-135.13,0-202.69
		c0-11.13,3.37-15.52,14.2-18.59c71.43-20.25,142.86-40.51,214.29-60.77c12.35-3.5,17.75-1.28,23.84,9.92c0,93.15,0,186.3,0,279.45
		c-0.36,0.93-0.86,1.83-1.07,2.79c-5.86,27.37-28.49,47.9-55.46,50.28c-41.86,3.69-75.26-33.16-67.52-74.51
		c6.18-33.02,39.07-55.82,71.89-49.47c7.02,1.36,13.76,4.16,20.71,6.32c0-42.05,0-84.39,0-127.17
		c-63.29,17.88-126.33,35.7-189.61,53.58c0,2.39,0,4.45,0,6.52c0,61.68,0.12,123.36-0.06,185.04c-0.07,22.95-10.23,40.93-29.72,52.8
		c-7.36,4.48-16.24,6.45-24.43,9.57C525.81,941.95,519.9,941.95,514,941.95z"/>
	<path class="st0" d="M398.25,476.9c0,1.74,0,3.58,0,5.42c0,79.93,0.01,159.87,0,239.8c0,33.21-25.08,61.07-56.96,63.33
		c-34.12,2.42-63.66-20.95-67.74-54.78c-2.85-23.67,5.63-43.55,24.92-57.84c19.44-14.4,40.69-16.38,62.93-6.74
		c1.58,0.68,3.1,1.49,5.58,2.69c0-2.41,0-4.34,0-6.28c0-79.24-0.01-158.48,0.01-237.71c0-10.64,7.34-17.63,17.45-16.64
		c5.41,0.53,9.14,3.65,12.14,8.04c9.29,13.62,18.15,27.58,28.2,40.63c18.69,24.29,42.18,43.58,66.42,62.09
		c26.1,19.94,37.11,46.82,30.51,78.9c-6.73,32.72-27.9,53.05-60.46,60.96c-5.16,1.26-10.65,1.47-16,1.55
		c-8.91,0.13-15.58-6.62-15.68-15.29c-0.1-8.76,6.23-15.41,15.14-15.9c23.19-1.27,40.01-14.2,45.61-35.06
		c4.96-18.45-1.35-37.5-16.85-49.08c-23.15-17.3-45.29-35.7-64.64-57.27c-3.24-3.61-6.39-7.32-9.59-10.97
		C399.17,476.69,398.92,476.8,398.25,476.9z"/>
</g>
<g>
	<path class="st0" d="M511.89,963.21c-8.74-3.54-18.13-6-26.09-10.83c-24.19-14.65-36.11-44.32-29.78-71.46
		c6.56-28.13,30.07-49.5,58.29-52.56c14.25-1.54,27.88,1.12,41.41,8.63c0-2.83,0-4.78,0-6.72c0-72.98,0-145.95,0-218.93
		c0-11.73,3.72-16.62,14.91-19.8c77.19-21.93,154.37-43.88,231.57-65.79c2.5-0.71,5.08-1.41,7.65-1.54
		c10.04-0.49,17.74,6.68,17.75,16.73c0.04,96.99,0.19,193.98-0.09,290.96c-0.09,32.92-30.88,62.63-63.73,63.86
		c-36.22,1.35-64.74-25.09-70.14-56.22c-6.15-35.48,17.94-71.07,53.45-77.8c15-2.85,29.37-0.95,43.11,5.74
		c0.97,0.47,1.97,0.9,3.41,1.57c0-46.17,0-91.81,0-137.87c-67.97,19.27-135.77,38.5-204.19,57.89c0,2.15,0,4.35,0,6.56
		c0,65.85-0.5,131.7,0.21,197.54c0.37,34.43-24.17,63.74-55.61,69.02c-0.67,0.11-1.26,0.67-1.89,1.01
		C525.37,963.21,518.63,963.21,511.89,963.21z M793.71,563.6c-68.2,19.34-136.09,38.58-204.08,57.86c0,10.82,0,21.27,0,32.17
		c68.18-19.34,136.08-38.6,204.08-57.89C793.71,584.9,793.71,574.47,793.71,563.6z M760.25,861.86c18.2-0.04,33.68-15.6,33.63-33.8
		c-0.05-18.27-15.52-33.73-33.73-33.69c-18.22,0.04-33.67,15.56-33.63,33.79C726.57,846.39,742.09,861.9,760.25,861.86z
		 M521.94,861.91c-18.22,0.04-33.64,15.54-33.62,33.8c0.03,18.21,15.57,33.75,33.73,33.7c18.21-0.05,33.66-15.59,33.62-33.81
		C555.64,877.34,540.15,861.87,521.94,861.91z"/>
	<path class="st0" d="M374.81,386.79c4.13,3.88,9.23,7.13,12.24,11.74c17.79,27.21,36.2,53.89,60.9,75.4
		c12.84,11.19,26.16,21.84,39.49,32.44c27.73,22.04,39.85,50.69,32.72,85.33c-7.22,35.07-29.78,57.03-64.66,65.6
		c-5.74,1.41-11.84,1.73-17.78,1.82c-9.58,0.16-16.75-7.18-16.84-16.56c-0.09-9.45,6.76-16.6,16.38-17.11
		c24.87-1.31,43.09-15.38,49.11-37.9c5.28-19.77-1.62-40.44-18.25-53c-21.71-16.4-42.74-33.55-61.36-53.47
		c-6.45-6.91-12.56-14.15-19.6-22.12c0,3.05,0,5.03,0,7.01c0,86.49,0,172.98,0,259.48c0,35.83-26.16,65.58-60.41,68.75
		c-35.19,3.25-65.97-19.77-73.32-54.81c-0.18-0.86-0.72-1.64-1.09-2.46c0-6.75,0-13.51,0-20.26c0.39-1.01,0.93-1.98,1.15-3.03
		c7.82-36.77,41.65-59.82,78.69-53.15c7.17,1.29,14.03,4.25,21.3,6.53c0-2.07,0-4.13,0-6.18c0-84.19,0.12-168.38-0.16-252.57
		c-0.03-10.22,3.09-17.38,12.51-21.47C368.82,386.79,371.81,386.79,374.81,386.79z M353.43,726.52
		c-0.2-18.31-15.77-33.67-33.94-33.48c-18.26,0.19-33.6,15.8-33.42,34c0.18,18.27,15.81,33.7,33.93,33.5
		C338.25,760.33,353.63,744.68,353.43,726.52z"/>
</g>
</svg>
